<svg width="350" height="43" viewBox="0 0 350 43" fill="none" xmlns="http://www.w3.org/2000/svg">
<mask id="path-1-outside-1_0_2500" maskUnits="userSpaceOnUse" x="0.305176" y="-0.373535" width="350" height="44" fill="black">
<rect fill="white" x="0.305176" y="-0.373535" width="350" height="44"/>
<path d="M9.85696 40.6265H2.88205L16.727 2.29068H23.597L37.4419 40.6265H30.3621L27.268 31.7636H12.9511L9.85696 40.6265ZM19.2967 13.7232L14.9439 26.0998H25.3276L20.9224 13.7232C20.6078 12.7268 20.2407 11.5731 20.1358 10.7864C19.9784 11.5206 19.6638 12.6744 19.2967 13.7232ZM57.4051 27.4108H48.9618V40.6265H42.2491V2.29068H57.4051C65.1142 2.29068 70.0963 7.3252 70.0963 14.8245C70.0963 22.219 65.0618 27.4108 57.4051 27.4108ZM56.094 8.26917H48.9618V21.4323H55.9891C60.6041 21.4323 63.0689 18.9675 63.0689 14.7721C63.0689 10.5767 60.5517 8.26917 56.094 8.26917ZM76.9983 40.6265H70.0234L83.8683 2.29068H90.7383L104.583 40.6265H97.5035L94.4093 31.7636H80.0924L76.9983 40.6265ZM86.438 13.7232L82.0852 26.0998H92.4689L88.0637 13.7232C87.7491 12.7268 87.382 11.5731 87.2771 10.7864C87.1198 11.5206 86.8051 12.6744 86.438 13.7232ZM116.103 40.6265H109.39V2.29068H124.022C132.727 2.29068 137.814 6.69588 137.814 14.2477C137.814 19.3871 135.402 23.0581 130.892 24.8936L138.182 40.6265H130.84L124.337 26.3095H116.103V40.6265ZM116.103 8.26917V20.3835H124.022C128.27 20.3835 130.787 18.1284 130.787 14.2477C130.787 10.4193 128.27 8.26917 124.022 8.26917H116.103ZM140.655 8.47894V2.29068H169.813V8.47894H158.59V40.6265H151.877V8.47894H140.655ZM181.447 40.6265H174.944V2.29068H181.447L193.824 32.8125L206.2 2.29068H212.808V40.6265H206.305V28.8268C206.305 21.1177 206.305 18.8626 206.672 16.1356L196.918 40.6265H190.729L181.027 16.1881C181.395 18.4955 181.447 22.1141 181.447 26.8864V40.6265ZM245.102 40.6265H221.293V2.29068H245.102V8.47894H228.005V18.3382H243.319V24.2643H228.005V34.4382H245.102V40.6265ZM258.987 40.6265H252.379V2.29068H259.04L277.028 29.4561V2.29068H283.635V40.6265H277.028L258.987 13.461V40.6265ZM288.765 8.47894V2.29068H317.923V8.47894H306.7V40.6265H299.988V8.47894H288.765ZM320.852 12.989C320.852 6.27634 326.411 1.60892 334.487 1.60892C342.249 1.60892 347.178 5.90924 347.388 12.8317H340.675C340.518 9.5278 338.158 7.58741 334.382 7.58741C330.239 7.58741 327.564 9.58024 327.564 12.7793C327.564 15.5063 329.033 17.0271 332.232 17.7613L338.263 19.0724C344.818 20.4884 348.017 23.8447 348.017 29.561C348.017 36.6932 342.458 41.3082 334.015 41.3082C325.834 41.3082 320.485 36.9555 320.327 30.0854H327.04C327.093 33.3369 329.715 35.2773 334.015 35.2773C338.473 35.2773 341.305 33.3369 341.305 30.1379C341.305 27.5682 339.993 26.0473 336.847 25.3656L330.764 24.0021C324.261 22.5861 320.852 18.8626 320.852 12.989Z"/>
</mask>
<path d="M9.85696 40.6265V42.1248H10.9209L11.2716 41.1203L9.85696 40.6265ZM2.88205 40.6265L1.47277 40.1175L0.747822 42.1248H2.88205V40.6265ZM16.727 2.29068V0.792306H15.675L15.3177 1.78172L16.727 2.29068ZM23.597 2.29068L25.0063 1.78172L24.649 0.792306H23.597V2.29068ZM37.4419 40.6265V42.1248H39.5762L38.8512 40.1175L37.4419 40.6265ZM30.3622 40.6265L28.9475 41.1203L29.2982 42.1248H30.3622V40.6265ZM27.268 31.7636L28.6827 31.2697L28.332 30.2652H27.268V31.7636ZM12.9511 31.7636V30.2652H11.8871L11.5365 31.2697L12.9511 31.7636ZM19.2967 13.7232L20.7102 14.2204L20.7109 14.2182L19.2967 13.7232ZM14.9439 26.0998L13.5304 25.6026L12.8286 27.5981H14.9439V26.0998ZM25.3276 26.0998V27.5981H27.4514L26.7392 25.5973L25.3276 26.0998ZM20.9224 13.7232L19.4936 14.1744L19.5017 14.2002L19.5108 14.2257L20.9224 13.7232ZM20.1358 10.7864L21.621 10.5884L18.6707 10.4725L20.1358 10.7864ZM9.85696 39.1281H2.88205V42.1248H9.85696V39.1281ZM4.29133 41.1354L18.1363 2.79964L15.3177 1.78172L1.47277 40.1175L4.29133 41.1354ZM16.727 3.78905H23.597V0.792306H16.727V3.78905ZM22.1877 2.79964L36.0327 41.1354L38.8512 40.1175L25.0063 1.78172L22.1877 2.79964ZM37.4419 39.1281H30.3622V42.1248H37.4419V39.1281ZM31.7768 40.1326L28.6827 31.2697L25.8534 32.2575L28.9475 41.1203L31.7768 40.1326ZM27.268 30.2652H12.9511V33.262H27.268V30.2652ZM11.5365 31.2697L8.44232 40.1326L11.2716 41.1203L14.3657 32.2575L11.5365 31.2697ZM17.8832 13.2261L13.5304 25.6026L16.3574 26.5969L20.7102 14.2204L17.8832 13.2261ZM14.9439 27.5981H25.3276V24.6014H14.9439V27.5981ZM26.7392 25.5973L22.334 13.2208L19.5108 14.2257L23.916 26.6022L26.7392 25.5973ZM22.3512 13.272C22.0183 12.2176 21.7044 11.214 21.621 10.5884L18.6505 10.9845C18.7769 11.9321 19.1973 13.236 19.4936 14.1744L22.3512 13.272ZM18.6707 10.4725C18.5269 11.1433 18.2295 12.2367 17.8824 13.2282L20.7109 14.2182C21.0981 13.1121 21.43 11.8979 21.6009 11.1004L18.6707 10.4725ZM48.9618 27.4108V25.9125H47.4634V27.4108H48.9618ZM48.9618 40.6265V42.1248H50.4601V40.6265H48.9618ZM42.2491 40.6265H40.7507V42.1248H42.2491V40.6265ZM42.2491 2.29068V0.792306H40.7507V2.29068H42.2491ZM48.9618 8.26917V6.7708H47.4634V8.26917H48.9618ZM48.9618 21.4323H47.4634V22.9307H48.9618V21.4323ZM57.4051 25.9125H48.9618V28.9092H57.4051V25.9125ZM47.4634 27.4108V40.6265H50.4601V27.4108H47.4634ZM48.9618 39.1281H42.2491V42.1248H48.9618V39.1281ZM43.7474 40.6265V2.29068H40.7507V40.6265H43.7474ZM42.2491 3.78905H57.4051V0.792306H42.2491V3.78905ZM57.4051 3.78905C60.9269 3.78905 63.6986 4.93255 65.5853 6.80801C67.4717 8.68325 68.5979 11.414 68.5979 14.8245H71.5947C71.5947 10.7358 70.2298 7.19955 67.698 4.6827C65.1663 2.16606 61.5924 0.792306 57.4051 0.792306V3.78905ZM68.5979 14.8245C68.5979 18.1745 67.4635 20.9244 65.5609 22.8327C63.6598 24.7394 60.8854 25.9125 57.4051 25.9125V28.9092C61.5815 28.9092 65.1527 27.4864 67.683 24.9486C70.2118 22.4123 71.5947 18.869 71.5947 14.8245H68.5979ZM56.094 6.7708H48.9618V9.76754H56.094V6.7708ZM47.4634 8.26917V21.4323H50.4601V8.26917H47.4634ZM48.9618 22.9307H55.9891V19.934H48.9618V22.9307ZM55.9891 22.9307C58.5526 22.9307 60.7417 22.2437 62.2951 20.7586C63.858 19.2643 64.5673 17.1635 64.5673 14.7721H61.5706C61.5706 16.5762 61.0474 17.8054 60.2242 18.5925C59.3914 19.3886 58.0407 19.934 55.9891 19.934V22.9307ZM64.5673 14.7721C64.5673 12.3703 63.8382 10.3025 62.2724 8.84913C60.7239 7.41182 58.5665 6.7708 56.094 6.7708V9.76754C58.0792 9.76754 59.4092 10.2803 60.2338 11.0456C61.041 11.7948 61.5706 12.9784 61.5706 14.7721H64.5673ZM76.9983 40.6265V42.1248H78.0622L78.4129 41.1203L76.9983 40.6265ZM70.0234 40.6265L68.6141 40.1175L67.8891 42.1248H70.0234V40.6265ZM83.8683 2.29068V0.792306H82.8163L82.459 1.78172L83.8683 2.29068ZM90.7383 2.29068L92.1476 1.78172L91.7903 0.792306H90.7383V2.29068ZM104.583 40.6265V42.1248H106.717L105.993 40.1175L104.583 40.6265ZM97.5035 40.6265L96.0888 41.1203L96.4395 42.1248H97.5035V40.6265ZM94.4093 31.7636L95.824 31.2697L95.4733 30.2652H94.4093V31.7636ZM80.0924 31.7636V30.2652H79.0284L78.6778 31.2697L80.0924 31.7636ZM86.438 13.7232L87.8515 14.2204L87.8522 14.2182L86.438 13.7232ZM82.0852 26.0998L80.6717 25.6026L79.9699 27.5981H82.0852V26.0998ZM92.4689 26.0998V27.5981H94.5927L93.8805 25.5973L92.4689 26.0998ZM88.0637 13.7232L86.6349 14.1744L86.643 14.2002L86.6521 14.2257L88.0637 13.7232ZM87.2771 10.7864L88.7623 10.5884L85.812 10.4725L87.2771 10.7864ZM76.9983 39.1281H70.0234V42.1248H76.9983V39.1281ZM71.4326 41.1354L85.2776 2.79964L82.459 1.78172L68.6141 40.1175L71.4326 41.1354ZM83.8683 3.78905H90.7383V0.792306H83.8683V3.78905ZM89.329 2.79964L103.174 41.1354L105.993 40.1175L92.1476 1.78172L89.329 2.79964ZM104.583 39.1281H97.5035V42.1248H104.583V39.1281ZM98.9181 40.1326L95.824 31.2697L92.9947 32.2575L96.0888 41.1203L98.9181 40.1326ZM94.4093 30.2652H80.0924V33.262H94.4093V30.2652ZM78.6778 31.2697L75.5836 40.1326L78.4129 41.1203L81.507 32.2575L78.6778 31.2697ZM85.0245 13.2261L80.6717 25.6026L83.4987 26.5969L87.8515 14.2204L85.0245 13.2261ZM82.0852 27.5981H92.4689V24.6014H82.0852V27.5981ZM93.8805 25.5973L89.4753 13.2208L86.6521 14.2257L91.0573 26.6022L93.8805 25.5973ZM89.4925 13.272C89.1596 12.2176 88.8457 11.214 88.7623 10.5884L85.7919 10.9845C85.9182 11.9321 86.3386 13.236 86.6349 14.1744L89.4925 13.272ZM85.812 10.4725C85.6682 11.1433 85.3708 12.2367 85.0237 13.2282L87.8522 14.2182C88.2394 13.1121 88.5713 11.8979 88.7422 11.1004L85.812 10.4725ZM116.103 40.6265V42.1248H117.601V40.6265H116.103ZM109.39 40.6265H107.892V42.1248H109.39V40.6265ZM109.39 2.29068V0.792306H107.892V2.29068H109.39ZM130.892 24.8936L130.327 23.5057L128.872 24.098L129.532 25.5235L130.892 24.8936ZM138.182 40.6265V42.1248H140.527L139.541 39.9966L138.182 40.6265ZM130.84 40.6265L129.475 41.2461L129.874 42.1248H130.84V40.6265ZM124.337 26.3095L125.701 25.6899L125.302 24.8112H124.337V26.3095ZM116.103 26.3095V24.8112H114.605V26.3095H116.103ZM116.103 8.26917V6.7708H114.605V8.26917H116.103ZM116.103 20.3835H114.605V21.8819H116.103V20.3835ZM116.103 39.1281H109.39V42.1248H116.103V39.1281ZM110.889 40.6265V2.29068H107.892V40.6265H110.889ZM109.39 3.78905H124.022V0.792306H109.39V3.78905ZM124.022 3.78905C128.139 3.78905 131.195 4.83088 133.201 6.56955C135.178 8.28247 136.316 10.8277 136.316 14.2477H139.313C139.313 10.1159 137.908 6.68258 135.164 4.30495C132.45 1.95307 128.611 0.792306 124.022 0.792306V3.78905ZM136.316 14.2477C136.316 16.5799 135.771 18.486 134.789 19.9912C133.81 21.4927 132.338 22.6875 130.327 23.5057L131.457 26.2814C133.956 25.2641 135.945 23.7057 137.3 21.628C138.652 19.5539 139.313 17.0549 139.313 14.2477H136.316ZM129.532 25.5235L136.822 41.2564L139.541 39.9966L132.252 24.2637L129.532 25.5235ZM138.182 39.1281H130.84V42.1248H138.182V39.1281ZM132.204 40.0068L125.701 25.6899L122.972 26.9292L129.475 41.2461L132.204 40.0068ZM124.337 24.8112H116.103V27.8079H124.337V24.8112ZM114.605 26.3095V40.6265H117.601V26.3095H114.605ZM114.605 8.26917V20.3835H117.601V8.26917H114.605ZM116.103 21.8819H124.022V18.8851H116.103V21.8819ZM124.022 21.8819C126.399 21.8819 128.49 21.2498 130.002 19.8824C131.536 18.4962 132.285 16.5252 132.285 14.2477H129.289C129.289 15.8509 128.78 16.9478 127.993 17.6593C127.185 18.3897 125.893 18.8851 124.022 18.8851V21.8819ZM132.285 14.2477C132.285 11.9881 131.53 10.0486 129.985 8.69555C128.468 7.36778 126.382 6.7708 124.022 6.7708V9.76754C125.91 9.76754 127.206 10.2456 128.01 10.95C128.786 11.6292 129.289 12.6789 129.289 14.2477H132.285ZM124.022 6.7708H116.103V9.76754H124.022V6.7708ZM140.655 8.47894H139.156V9.97731H140.655V8.47894ZM140.655 2.29068V0.792306H139.156V2.29068H140.655ZM169.813 2.29068H171.311V0.792306H169.813V2.29068ZM169.813 8.47894V9.97731H171.311V8.47894H169.813ZM158.59 8.47894V6.98057H157.092V8.47894H158.59ZM158.59 40.6265V42.1248H160.088V40.6265H158.59ZM151.877 40.6265H150.379V42.1248H151.877V40.6265ZM151.877 8.47894H153.376V6.98057H151.877V8.47894ZM142.153 8.47894V2.29068H139.156V8.47894H142.153ZM140.655 3.78905H169.813V0.792306H140.655V3.78905ZM168.314 2.29068V8.47894H171.311V2.29068H168.314ZM169.813 6.98057H158.59V9.97731H169.813V6.98057ZM157.092 8.47894V40.6265H160.088V8.47894H157.092ZM158.59 39.1281H151.877V42.1248H158.59V39.1281ZM153.376 40.6265V8.47894H150.379V40.6265H153.376ZM151.877 6.98057H140.655V9.97731H151.877V6.98057ZM181.447 40.6265V42.1248H182.945V40.6265H181.447ZM174.944 40.6265H173.446V42.1248H174.944V40.6265ZM174.944 2.29068V0.792306H173.446V2.29068H174.944ZM181.447 2.29068L182.836 1.72762L182.456 0.792306H181.447V2.29068ZM193.824 32.8125L192.435 33.3755L193.824 36.7998L195.212 33.3755L193.824 32.8125ZM206.2 2.29068V0.792306H205.191L204.812 1.72762L206.2 2.29068ZM212.808 2.29068H214.306V0.792306H212.808V2.29068ZM212.808 40.6265V42.1248H214.306V40.6265H212.808ZM206.305 40.6265H204.807V42.1248H206.305V40.6265ZM206.672 16.1356L208.157 16.3355L205.28 15.5812L206.672 16.1356ZM196.918 40.6265V42.1248H197.934L198.31 41.1809L196.918 40.6265ZM190.729 40.6265L189.337 41.1793L189.712 42.1248H190.729V40.6265ZM181.027 16.1881L182.42 15.6352L179.548 16.4235L181.027 16.1881ZM181.447 39.1281H174.944V42.1248H181.447V39.1281ZM176.442 40.6265V2.29068H173.446V40.6265H176.442ZM174.944 3.78905H181.447V0.792306H174.944V3.78905ZM180.058 2.85373L192.435 33.3755L195.212 32.2494L182.836 1.72762L180.058 2.85373ZM195.212 33.3755L207.589 2.85373L204.812 1.72762L192.435 32.2494L195.212 33.3755ZM206.2 3.78905H212.808V0.792306H206.2V3.78905ZM211.309 2.29068V40.6265H214.306V2.29068H211.309ZM212.808 39.1281H206.305V42.1248H212.808V39.1281ZM207.803 40.6265V28.8268H204.807V40.6265H207.803ZM207.803 28.8268C207.803 21.073 207.807 18.9388 208.157 16.3355L205.187 15.9357C204.803 18.7865 204.807 21.1624 204.807 28.8268H207.803ZM205.28 15.5812L195.526 40.072L198.31 41.1809L208.064 16.69L205.28 15.5812ZM196.918 39.1281H190.729V42.1248H196.918V39.1281ZM192.122 40.0736L182.42 15.6352L179.635 16.7409L189.337 41.1793L192.122 40.0736ZM179.548 16.4235C179.892 18.5886 179.949 22.0742 179.949 26.8864H182.945C182.945 22.154 182.897 18.4025 182.507 15.9526L179.548 16.4235ZM179.949 26.8864V40.6265H182.945V26.8864H179.949ZM245.102 40.6265V42.1248H246.6V40.6265H245.102ZM221.293 40.6265H219.794V42.1248H221.293V40.6265ZM221.293 2.29068V0.792306H219.794V2.29068H221.293ZM245.102 2.29068H246.6V0.792306H245.102V2.29068ZM245.102 8.47894V9.97731H246.6V8.47894H245.102ZM228.005 8.47894V6.98057H226.507V8.47894H228.005ZM228.005 18.3382H226.507V19.8366H228.005V18.3382ZM243.319 18.3382H244.817V16.8398H243.319V18.3382ZM243.319 24.2643V25.7626H244.817V24.2643H243.319ZM228.005 24.2643V22.7659H226.507V24.2643H228.005ZM228.005 34.4382H226.507V35.9366H228.005V34.4382ZM245.102 34.4382H246.6V32.9398H245.102V34.4382ZM245.102 39.1281H221.293V42.1248H245.102V39.1281ZM222.791 40.6265V2.29068H219.794V40.6265H222.791ZM221.293 3.78905H245.102V0.792306H221.293V3.78905ZM243.603 2.29068V8.47894H246.6V2.29068H243.603ZM245.102 6.98057H228.005V9.97731H245.102V6.98057ZM226.507 8.47894V18.3382H229.504V8.47894H226.507ZM228.005 19.8366H243.319V16.8398H228.005V19.8366ZM241.82 18.3382V24.2643H244.817V18.3382H241.82ZM243.319 22.7659H228.005V25.7626H243.319V22.7659ZM226.507 24.2643V34.4382H229.504V24.2643H226.507ZM228.005 35.9366H245.102V32.9398H228.005V35.9366ZM243.603 34.4382V40.6265H246.6V34.4382H243.603ZM258.987 40.6265V42.1248H260.486V40.6265H258.987ZM252.379 40.6265H250.881V42.1248H252.379V40.6265ZM252.379 2.29068V0.792306H250.881V2.29068H252.379ZM259.04 2.29068L260.289 1.46343L259.845 0.792306H259.04V2.29068ZM277.028 29.4561L275.778 30.2834L278.526 34.4329V29.4561H277.028ZM277.028 2.29068V0.792306H275.529V2.29068H277.028ZM283.635 2.29068H285.134V0.792306H283.635V2.29068ZM283.635 40.6265V42.1248H285.134V40.6265H283.635ZM277.028 40.6265L275.779 41.4554L276.224 42.1248H277.028V40.6265ZM258.987 13.461L260.235 12.6321L257.489 8.49628V13.461H258.987ZM258.987 39.1281H252.379V42.1248H258.987V39.1281ZM253.878 40.6265V2.29068H250.881V40.6265H253.878ZM252.379 3.78905H259.04V0.792306H252.379V3.78905ZM257.79 3.11792L275.778 30.2834L278.277 28.6289L260.289 1.46343L257.79 3.11792ZM278.526 29.4561V2.29068H275.529V29.4561H278.526ZM277.028 3.78905H283.635V0.792306H277.028V3.78905ZM282.137 2.29068V40.6265H285.134V2.29068H282.137ZM283.635 39.1281H277.028V42.1248H283.635V39.1281ZM278.276 39.7975L260.235 12.6321L257.739 14.2899L275.779 41.4554L278.276 39.7975ZM257.489 13.461V40.6265H260.486V13.461H257.489ZM288.765 8.47894H287.267V9.97731H288.765V8.47894ZM288.765 2.29068V0.792306H287.267V2.29068H288.765ZM317.923 2.29068H319.422V0.792306H317.923V2.29068ZM317.923 8.47894V9.97731H319.422V8.47894H317.923ZM306.7 8.47894V6.98057H305.202V8.47894H306.7ZM306.7 40.6265V42.1248H308.199V40.6265H306.7ZM299.988 40.6265H298.489V42.1248H299.988V40.6265ZM299.988 8.47894H301.486V6.98057H299.988V8.47894ZM290.263 8.47894V2.29068H287.267V8.47894H290.263ZM288.765 3.78905H317.923V0.792306H288.765V3.78905ZM316.425 2.29068V8.47894H319.422V2.29068H316.425ZM317.923 6.98057H306.7V9.97731H317.923V6.98057ZM305.202 8.47894V40.6265H308.199V8.47894H305.202ZM306.7 39.1281H299.988V42.1248H306.7V39.1281ZM301.486 40.6265V8.47894H298.489V40.6265H301.486ZM299.988 6.98057H288.765V9.97731H299.988V6.98057ZM347.388 12.8317V14.3301H348.932L348.886 12.7863L347.388 12.8317ZM340.675 12.8317L339.179 12.903L339.247 14.3301H340.675V12.8317ZM332.232 17.7613L331.897 19.2217L331.905 19.2237L331.914 19.2255L332.232 17.7613ZM338.263 19.0724L337.945 20.5366L337.947 20.537L338.263 19.0724ZM320.327 30.0854V28.5871H318.794L318.829 30.1197L320.327 30.0854ZM327.04 30.0854L328.538 30.0613L328.514 28.5871H327.04V30.0854ZM336.847 25.3656L336.519 26.8277L336.53 26.83L336.847 25.3656ZM330.764 24.0021L331.091 22.5399L331.082 22.538L330.764 24.0021ZM322.35 12.989C322.35 10.0786 323.542 7.65386 325.602 5.93125C327.682 4.19208 330.73 3.10729 334.487 3.10729V0.110547C330.168 0.110547 326.398 1.35946 323.68 3.63218C320.942 5.92145 319.353 9.18673 319.353 12.989H322.35ZM334.487 3.10729C338.098 3.10729 340.892 4.10563 342.785 5.75449C344.662 7.38797 345.796 9.78065 345.89 12.8771L348.886 12.7863C348.77 8.96029 347.335 5.74158 344.753 3.49428C342.19 1.26236 338.638 0.110547 334.487 0.110547V3.10729ZM347.388 11.3333H340.675V14.3301H347.388V11.3333ZM342.172 12.7604C342.076 10.7449 341.289 9.01887 339.843 7.8178C338.421 6.63752 336.515 6.08904 334.382 6.08904V9.08578C336.025 9.08578 337.187 9.50749 337.928 10.1234C338.645 10.7185 339.117 11.6146 339.179 12.903L342.172 12.7604ZM334.382 6.08904C332.09 6.08904 330.036 6.63821 328.515 7.78898C326.952 8.97219 326.066 10.7136 326.066 12.7793H329.063C329.063 11.6459 329.514 10.7914 330.324 10.1784C331.177 9.53303 332.531 9.08578 334.382 9.08578V6.08904ZM326.066 12.7793C326.066 14.4293 326.52 15.8923 327.609 17.0459C328.661 18.1607 330.152 18.8212 331.897 19.2217L332.567 16.3009C331.113 15.9673 330.271 15.5003 329.788 14.9893C329.343 14.5172 329.063 13.8562 329.063 12.7793H326.066ZM331.914 19.2255L337.945 20.5366L338.581 17.6082L332.55 16.2972L331.914 19.2255ZM337.947 20.537C341.054 21.2082 343.168 22.2992 344.504 23.7278C345.812 25.1255 346.519 26.9999 346.519 29.561H349.516C349.516 26.4058 348.623 23.7439 346.692 21.6804C344.791 19.6478 342.027 18.3526 338.579 17.6078L337.947 20.537ZM346.519 29.561C346.519 32.7061 345.309 35.2136 343.221 36.9599C341.107 38.7282 337.975 39.8099 334.015 39.8099V42.8066C338.498 42.8066 342.367 41.5808 345.144 39.2585C347.946 36.9143 349.516 33.5482 349.516 29.561H346.519ZM334.015 39.8099C330.179 39.8099 327.16 38.7896 325.111 37.1134C323.089 35.459 321.895 33.074 321.825 30.0511L318.829 30.1197C318.917 33.9669 320.476 37.1933 323.213 39.4328C325.924 41.6505 329.67 42.8066 334.015 42.8066V39.8099ZM320.327 31.5838H327.04V28.5871H320.327V31.5838ZM325.542 30.1096C325.575 32.18 326.451 33.922 328.041 35.1033C329.581 36.2477 331.663 36.7757 334.015 36.7757V33.7789C332.067 33.7789 330.688 33.3366 329.828 32.698C329.019 32.0963 328.557 31.2424 328.538 30.0613L325.542 30.1096ZM334.015 36.7757C336.436 36.7757 338.593 36.2523 340.19 35.135C341.842 33.9795 342.803 32.2433 342.803 30.1379H339.806C339.806 31.2314 339.351 32.065 338.473 32.6794C337.539 33.3321 336.052 33.7789 334.015 33.7789V36.7757ZM342.803 30.1379C342.803 28.588 342.4 27.1658 341.36 26.0313C340.349 24.9282 338.898 24.2768 337.164 23.9012L336.53 26.83C337.943 27.1361 338.72 27.586 339.151 28.0562C339.553 28.495 339.806 29.1181 339.806 30.1379H342.803ZM337.175 23.9035L331.091 22.54L330.436 25.4641L336.519 26.8277L337.175 23.9035ZM331.082 22.538C328.034 21.8742 325.875 20.705 324.481 19.1624C323.105 17.6404 322.35 15.6194 322.35 12.989H319.353C319.353 16.2323 320.303 19.0098 322.257 21.1719C324.193 23.3135 326.99 24.7139 330.445 25.4661L331.082 22.538Z" fill="url(#paint0_linear_0_2500)" mask="url(#path-1-outside-1_0_2500)"/>
<defs>
<linearGradient id="paint0_linear_0_2500" x1="176.305" y1="-13.3815" x2="176.305" y2="54.7865" gradientUnits="userSpaceOnUse">
<stop stop-color="white"/>
<stop offset="0.659088" stop-color="white" stop-opacity="0.15"/>
<stop offset="1" stop-color="white" stop-opacity="0"/>
</linearGradient>
</defs>
</svg>
