<svg width="442" height="49" viewBox="0 0 442 49" fill="none" xmlns="http://www.w3.org/2000/svg">
<mask id="path-1-outside-1_0_2732" maskUnits="userSpaceOnUse" x="0.5" y="0.142578" width="441" height="49" fill="black">
<rect fill="white" x="0.5" y="0.142578" width="441" height="49"/>
<path d="M8.114 2.51658V30.7146H22.19V36.1426H2.226V2.51658H8.114ZM32.912 36.7406C28.082 36.7406 25.138 33.9346 25.138 29.6566C25.138 25.4706 28.174 22.8486 33.556 22.4346L40.364 21.9286V21.4226C40.364 18.3406 38.524 17.0986 35.672 17.0986C32.36 17.0986 30.52 18.4786 30.52 20.8706H25.736C25.736 15.9486 29.784 12.7286 35.948 12.7286C42.066 12.7286 45.838 16.0406 45.838 22.3426V36.1426H40.916L40.502 32.7846C39.536 35.1306 36.454 36.7406 32.912 36.7406ZM34.752 32.5086C38.202 32.5086 40.41 30.4386 40.41 26.9426V25.7466L35.672 26.1146C32.176 26.4366 30.842 27.5866 30.842 29.4266C30.842 31.4966 32.222 32.5086 34.752 32.5086ZM49.6031 29.2426H54.9391C54.9851 31.2206 56.4571 32.4626 59.0331 32.4626C61.6551 32.4626 63.0811 31.4046 63.0811 29.7486C63.0811 28.5986 62.4831 27.7706 60.4591 27.3106L56.3651 26.3446C52.2711 25.4246 50.2931 23.4926 50.2931 19.8586C50.2931 15.3966 54.0651 12.7286 59.3091 12.7286C64.4151 12.7286 67.8651 15.6726 67.9111 20.0886H62.5751C62.5291 18.1566 61.2411 16.9146 59.0791 16.9146C56.8711 16.9146 55.5831 17.9266 55.5831 19.6286C55.5831 20.9166 56.5951 21.7446 58.5271 22.2046L62.6211 23.1706C66.4391 24.0446 68.3711 25.7926 68.3711 29.2886C68.3711 33.8886 64.4611 36.7406 58.8491 36.7406C53.1911 36.7406 49.6031 33.7046 49.6031 29.2426ZM95.3005 36.1426L82.6045 2.51658H88.8605L96.2205 21.8826C96.9565 23.9066 97.6005 25.8846 98.3365 28.5986C99.1645 25.6546 99.8545 23.5846 100.499 21.8826L107.767 2.51658H113.885L101.373 36.1426H95.3005ZM123.554 36.7406C116.792 36.7406 112.054 31.8186 112.054 24.7806C112.054 17.6506 116.7 12.7286 123.37 12.7286C130.178 12.7286 134.502 17.2826 134.502 24.3666V26.0686L117.39 26.1146C117.804 30.1166 119.92 32.1406 123.646 32.1406C126.728 32.1406 128.752 30.9446 129.396 28.7826H134.594C133.628 33.7506 129.488 36.7406 123.554 36.7406ZM123.416 17.3286C120.104 17.3286 118.08 19.1226 117.528 22.5266H128.936C128.936 19.3986 126.774 17.3286 123.416 17.3286ZM137.706 24.2746C137.706 17.6506 142.03 12.6826 148.516 12.6826C151.92 12.6826 154.588 14.1086 155.922 16.5466L156.244 13.4186H161.442V34.9926C161.442 42.5826 156.888 47.3206 149.528 47.3206C142.996 47.3206 138.534 43.5946 137.844 37.5226H143.456C143.824 40.4666 146.078 42.2146 149.528 42.2146C153.392 42.2146 155.876 39.7766 155.876 36.0046V32.2326C154.45 34.3486 151.644 35.6826 148.378 35.6826C141.938 35.6826 137.706 30.8526 137.706 24.2746ZM143.364 24.1366C143.364 27.9546 145.802 30.8066 149.482 30.8066C153.346 30.8066 155.738 28.0926 155.738 24.1366C155.738 20.2726 153.392 17.6046 149.482 17.6046C145.756 17.6046 143.364 20.4106 143.364 24.1366ZM174.012 36.7406C169.182 36.7406 166.238 33.9346 166.238 29.6566C166.238 25.4706 169.274 22.8486 174.656 22.4346L181.464 21.9286V21.4226C181.464 18.3406 179.624 17.0986 176.772 17.0986C173.46 17.0986 171.62 18.4786 171.62 20.8706H166.836C166.836 15.9486 170.884 12.7286 177.048 12.7286C183.166 12.7286 186.938 16.0406 186.938 22.3426V36.1426H182.016L181.602 32.7846C180.636 35.1306 177.554 36.7406 174.012 36.7406ZM175.852 32.5086C179.302 32.5086 181.51 30.4386 181.51 26.9426V25.7466L176.772 26.1146C173.276 26.4366 171.942 27.5866 171.942 29.4266C171.942 31.4966 173.322 32.5086 175.852 32.5086ZM190.703 29.2426H196.039C196.085 31.2206 197.557 32.4626 200.133 32.4626C202.755 32.4626 204.181 31.4046 204.181 29.7486C204.181 28.5986 203.583 27.7706 201.559 27.3106L197.465 26.3446C193.371 25.4246 191.393 23.4926 191.393 19.8586C191.393 15.3966 195.165 12.7286 200.409 12.7286C205.515 12.7286 208.965 15.6726 209.011 20.0886H203.675C203.629 18.1566 202.341 16.9146 200.179 16.9146C197.971 16.9146 196.683 17.9266 196.683 19.6286C196.683 20.9166 197.695 21.7446 199.627 22.2046L203.721 23.1706C207.539 24.0446 209.471 25.7926 209.471 29.2886C209.471 33.8886 205.561 36.7406 199.949 36.7406C194.291 36.7406 190.703 33.7046 190.703 29.2426ZM232.858 36.1426H226.97V2.51658H232.858V16.4086H247.762V2.51658H253.65V36.1426H247.762V21.8826H232.858V36.1426ZM258.949 24.7346C258.949 17.6506 264.055 12.7746 271.093 12.7746C278.131 12.7746 283.237 17.6506 283.237 24.7346C283.237 31.8186 278.131 36.6946 271.093 36.6946C264.055 36.6946 258.949 31.8186 258.949 24.7346ZM264.561 24.7346C264.561 28.8746 267.229 31.6806 271.093 31.6806C274.957 31.6806 277.625 28.8746 277.625 24.7346C277.625 20.5946 274.957 17.7886 271.093 17.7886C267.229 17.7886 264.561 20.5946 264.561 24.7346ZM295.189 36.1426H289.577V18.1106H285.207V13.4186H289.577V6.33458H295.189V13.4186H299.605V18.1106H295.189V36.1426ZM301.345 29.2426H306.681C306.727 31.2206 308.199 32.4626 310.775 32.4626C313.397 32.4626 314.823 31.4046 314.823 29.7486C314.823 28.5986 314.225 27.7706 312.201 27.3106L308.107 26.3446C304.013 25.4246 302.035 23.4926 302.035 19.8586C302.035 15.3966 305.807 12.7286 311.051 12.7286C316.157 12.7286 319.607 15.6726 319.653 20.0886H314.317C314.271 18.1566 312.983 16.9146 310.821 16.9146C308.613 16.9146 307.325 17.9266 307.325 19.6286C307.325 20.9166 308.337 21.7446 310.269 22.2046L314.363 23.1706C318.181 24.0446 320.113 25.7926 320.113 29.2886C320.113 33.8886 316.203 36.7406 310.591 36.7406C304.933 36.7406 301.345 33.7046 301.345 29.2426ZM323.282 11.9006C323.282 6.01258 328.158 1.91858 335.242 1.91858C342.05 1.91858 346.374 5.69058 346.558 11.7626H340.67C340.532 8.86458 338.462 7.16258 335.15 7.16258C331.516 7.16258 329.17 8.91058 329.17 11.7166C329.17 14.1086 330.458 15.4426 333.264 16.0866L338.554 17.2366C344.304 18.4786 347.11 21.4226 347.11 26.4366C347.11 32.6926 342.234 36.7406 334.828 36.7406C327.652 36.7406 322.96 32.9226 322.822 26.8966H328.71C328.756 29.7486 331.056 31.4506 334.828 31.4506C338.738 31.4506 341.222 29.7486 341.222 26.9426C341.222 24.6886 340.072 23.3546 337.312 22.7566L331.976 21.5606C326.272 20.3186 323.282 17.0526 323.282 11.9006ZM351.609 46.6766V13.4186H356.807L357.175 16.8686C358.555 14.2466 361.545 12.7286 364.995 12.7286C371.389 12.7286 375.621 17.3746 375.621 24.5046C375.621 31.5886 371.757 36.7406 364.995 36.7406C361.591 36.7406 358.647 35.4066 357.221 33.1066V46.6766H351.609ZM357.267 24.7806C357.267 28.8746 359.797 31.6806 363.661 31.6806C367.617 31.6806 369.963 28.8286 369.963 24.7806C369.963 20.7326 367.617 17.8346 363.661 17.8346C359.797 17.8346 357.267 20.6866 357.267 24.7806ZM378.755 24.7346C378.755 17.6506 383.861 12.7746 390.899 12.7746C397.937 12.7746 403.043 17.6506 403.043 24.7346C403.043 31.8186 397.937 36.6946 390.899 36.6946C383.861 36.6946 378.755 31.8186 378.755 24.7346ZM384.367 24.7346C384.367 28.8746 387.035 31.6806 390.899 31.6806C394.763 31.6806 397.431 28.8746 397.431 24.7346C397.431 20.5946 394.763 17.7886 390.899 17.7886C387.035 17.7886 384.367 20.5946 384.367 24.7346ZM414.995 36.1426H409.383V18.1106H405.013V13.4186H409.383V6.33458H414.995V13.4186H419.411V18.1106H414.995V36.1426ZM421.152 29.2426H426.488C426.534 31.2206 428.006 32.4626 430.582 32.4626C433.204 32.4626 434.63 31.4046 434.63 29.7486C434.63 28.5986 434.032 27.7706 432.008 27.3106L427.914 26.3446C423.82 25.4246 421.842 23.4926 421.842 19.8586C421.842 15.3966 425.614 12.7286 430.858 12.7286C435.964 12.7286 439.414 15.6726 439.46 20.0886H434.124C434.078 18.1566 432.79 16.9146 430.628 16.9146C428.42 16.9146 427.132 17.9266 427.132 19.6286C427.132 20.9166 428.144 21.7446 430.076 22.2046L434.17 23.1706C437.988 24.0446 439.92 25.7926 439.92 29.2886C439.92 33.8886 436.01 36.7406 430.398 36.7406C424.74 36.7406 421.152 33.7046 421.152 29.2426Z"/>
</mask>
<path d="M8.114 2.51658H9.61237V1.01821H8.114V2.51658ZM8.114 30.7146H6.61563V32.2129H8.114V30.7146ZM22.19 30.7146H23.6884V29.2162H22.19V30.7146ZM22.19 36.1426V37.6409H23.6884V36.1426H22.19ZM2.226 36.1426H0.72763V37.6409H2.226V36.1426ZM2.226 2.51658V1.01821H0.72763V2.51658H2.226ZM6.61563 2.51658V30.7146H9.61237V2.51658H6.61563ZM8.114 32.2129H22.19V29.2162H8.114V32.2129ZM20.6916 30.7146V36.1426H23.6884V30.7146H20.6916ZM22.19 34.6442H2.226V37.6409H22.19V34.6442ZM3.72437 36.1426V2.51658H0.72763V36.1426H3.72437ZM2.226 4.01495H8.114V1.01821H2.226V4.01495ZM33.556 22.4346L33.4449 20.9403L33.441 20.9406L33.556 22.4346ZM40.364 21.9286L40.475 23.4228L41.8623 23.3197V21.9286H40.364ZM30.52 20.8706V22.3689H32.0183V20.8706H30.52ZM25.736 20.8706H24.2376V22.3689H25.736V20.8706ZM45.838 36.1426V37.6409H47.3363V36.1426H45.838ZM40.916 36.1426L39.4288 36.3259L39.591 37.6409H40.916V36.1426ZM40.502 32.7846L41.9891 32.6012L41.2904 26.9344L39.1164 32.2141L40.502 32.7846ZM40.41 25.7466H41.9083V24.1273L40.2939 24.2527L40.41 25.7466ZM35.672 26.1146L35.5559 24.6207L35.5452 24.6215L35.5345 24.6225L35.672 26.1146ZM32.912 35.2422C30.7832 35.2422 29.2329 34.6272 28.2298 33.7016C27.239 32.7873 26.6363 31.4373 26.6363 29.6566H23.6396C23.6396 32.1539 24.5089 34.3458 26.1976 35.904C27.874 37.4509 30.2107 38.2389 32.912 38.2389V35.2422ZM26.6363 29.6566C26.6363 27.9618 27.2329 26.6891 28.3053 25.7674C29.4183 24.8109 31.1791 24.1202 33.6709 23.9285L33.441 20.9406C30.5508 21.1629 28.1026 21.9902 26.3521 23.4947C24.561 25.0341 23.6396 27.1654 23.6396 29.6566H26.6363ZM33.667 23.9288L40.475 23.4228L40.2529 20.4343L33.4449 20.9403L33.667 23.9288ZM41.8623 21.9286V21.4226H38.8656V21.9286H41.8623ZM41.8623 21.4226C41.8623 19.5746 41.2987 18.0205 40.0593 16.9643C38.8647 15.9464 37.2824 15.6002 35.672 15.6002V18.5969C36.9135 18.5969 37.6772 18.8717 38.1156 19.2453C38.5092 19.5806 38.8656 20.1885 38.8656 21.4226H41.8623ZM35.672 15.6002C33.8386 15.6002 32.1916 15.9776 30.9651 16.8813C29.674 17.8327 29.0216 19.2422 29.0216 20.8706H32.0183C32.0183 20.107 32.2859 19.6305 32.7428 19.2938C33.2643 18.9096 34.1933 18.5969 35.672 18.5969V15.6002ZM30.52 19.3722H25.736V22.3689H30.52V19.3722ZM27.2343 20.8706C27.2343 18.8601 28.0429 17.2581 29.4642 16.1257C30.917 14.9681 33.1125 14.2269 35.948 14.2269V11.2302C32.6194 11.2302 29.7089 12.099 27.5967 13.782C25.453 15.49 24.2376 17.9591 24.2376 20.8706H27.2343ZM35.948 14.2269C38.7476 14.2269 40.8064 14.9825 42.1574 16.2607C43.4953 17.5265 44.3396 19.4945 44.3396 22.3426H47.3363C47.3363 18.8886 46.2947 16.0496 44.217 14.0839C42.1525 12.1307 39.2663 11.2302 35.948 11.2302V14.2269ZM44.3396 22.3426V36.1426H47.3363V22.3426H44.3396ZM45.838 34.6442H40.916V37.6409H45.838V34.6442ZM42.4031 35.9592L41.9891 32.6012L39.0148 32.9679L39.4288 36.3259L42.4031 35.9592ZM39.1164 32.2141C38.4734 33.7758 36.1306 35.2422 32.912 35.2422V38.2389C36.7773 38.2389 40.5985 36.4853 41.8875 33.3551L39.1164 32.2141ZM34.752 34.0069C36.7754 34.0069 38.5962 33.3952 39.9184 32.1117C41.2467 30.8222 41.9083 29.013 41.9083 26.9426H38.9116C38.9116 28.3681 38.4692 29.3419 37.831 29.9615C37.1867 30.587 36.1786 31.0102 34.752 31.0102V34.0069ZM41.9083 26.9426V25.7466H38.9116V26.9426H41.9083ZM40.2939 24.2527L35.5559 24.6207L35.788 27.6084L40.526 27.2404L40.2939 24.2527ZM35.5345 24.6225C33.6881 24.7926 32.1609 25.196 31.0673 25.9876C29.869 26.8551 29.3436 28.0757 29.3436 29.4266H32.3403C32.3403 28.9374 32.4819 28.6631 32.8246 28.4151C33.272 28.0912 34.1598 27.7586 35.8094 27.6066L35.5345 24.6225ZM29.3436 29.4266C29.3436 30.824 29.83 32.0766 30.9311 32.9288C31.9635 33.7277 33.3251 34.0069 34.752 34.0069V31.0102C33.6488 31.0102 33.0554 30.7834 32.7653 30.5589C32.5439 30.3876 32.3403 30.0992 32.3403 29.4266H29.3436ZM49.6031 29.2426V27.7442H48.1048V29.2426H49.6031ZM54.9391 29.2426L56.4371 29.2077L56.4031 27.7442H54.9391V29.2426ZM60.4591 27.3106L60.115 28.769L60.1271 28.7717L60.4591 27.3106ZM56.3651 26.3446L56.7092 24.8863L56.7014 24.8844L56.6936 24.8827L56.3651 26.3446ZM67.9111 20.0886V21.5869H69.4252L69.4094 20.073L67.9111 20.0886ZM62.5751 20.0886L61.0772 20.1242L61.112 21.5869H62.5751V20.0886ZM58.5271 22.2046L58.1801 23.6622L58.183 23.6629L58.5271 22.2046ZM62.6211 23.1706L62.277 24.6289L62.2868 24.6312L62.6211 23.1706ZM49.6031 30.7409H54.9391V27.7442H49.6031V30.7409ZM53.4412 29.2774C53.4733 30.6607 54.0234 31.9002 55.1002 32.7634C56.1411 33.5978 57.5221 33.9609 59.0331 33.9609V30.9642C57.9681 30.9642 57.3252 30.7063 56.9746 30.4252C56.6599 30.173 56.4509 29.8025 56.4371 29.2077L53.4412 29.2774ZM59.0331 33.9609C60.5159 33.9609 61.8661 33.6663 62.8906 32.9604C63.9797 32.2099 64.5795 31.0705 64.5795 29.7486H61.5828C61.5828 30.0826 61.4695 30.3003 61.1902 30.4928C60.8461 30.7298 60.1723 30.9642 59.0331 30.9642V33.9609ZM64.5795 29.7486C64.5795 28.8881 64.3427 27.9761 63.5961 27.2189C62.9047 26.5176 61.9276 26.1078 60.7912 25.8495L60.1271 28.7717C61.0146 28.9734 61.3485 29.2076 61.4621 29.3228C61.5205 29.382 61.5828 29.459 61.5828 29.7486H64.5795ZM60.8032 25.8523L56.7092 24.8863L56.021 27.8029L60.115 28.7689L60.8032 25.8523ZM56.6936 24.8827C54.7886 24.4546 53.5956 23.8355 52.8768 23.0838C52.1966 22.3725 51.7915 21.3853 51.7915 19.8586H48.7948C48.7948 21.9658 49.3786 23.7617 50.711 25.1549C52.0046 26.5077 53.8477 27.3146 56.0366 27.8065L56.6936 24.8827ZM51.7915 19.8586C51.7915 18.0986 52.5136 16.7539 53.7459 15.8097C55.0173 14.8356 56.9232 14.2269 59.3091 14.2269V11.2302C56.4511 11.2302 53.8489 11.9556 51.9233 13.4309C49.9586 14.9363 48.7948 17.1565 48.7948 19.8586H51.7915ZM59.3091 14.2269C61.5808 14.2269 63.3513 14.8803 64.5339 15.8915C65.6976 16.8863 66.3941 18.31 66.4128 20.1042L69.4094 20.073C69.3821 17.4512 68.3307 15.1948 66.4813 13.6137C64.651 12.0488 62.1434 11.2302 59.3091 11.2302V14.2269ZM67.9111 18.5902H62.5751V21.5869H67.9111V18.5902ZM64.0731 20.0529C64.0421 18.7518 63.5813 17.5478 62.6369 16.6761C61.7011 15.8123 60.4446 15.4162 59.0791 15.4162V18.4129C59.8757 18.4129 60.3441 18.6379 60.6043 18.8781C60.856 19.1104 61.0622 19.4933 61.0772 20.1242L64.0731 20.0529ZM59.0791 15.4162C57.7702 15.4162 56.5297 15.7134 55.5824 16.4512C54.5861 17.2272 54.0848 18.3602 54.0848 19.6286H57.0815C57.0815 19.195 57.2242 18.971 57.4238 18.8155C57.6726 18.6217 58.1801 18.4129 59.0791 18.4129V15.4162ZM54.0848 19.6286C54.0848 20.7296 54.5439 21.6664 55.3533 22.3629C56.1052 23.0098 57.1037 23.4059 58.1801 23.6622L58.8742 20.747C58.0185 20.5432 57.5451 20.2954 57.3079 20.0913C57.1283 19.9368 57.0815 19.8156 57.0815 19.6286H54.0848ZM58.183 23.6629L62.277 24.6289L62.9652 21.7123L58.8712 20.7463L58.183 23.6629ZM62.2868 24.6312C64.0674 25.0388 65.1834 25.6046 65.8559 26.2932C66.4836 26.936 66.8728 27.8381 66.8728 29.2886H69.8695C69.8695 27.2431 69.2926 25.5232 67.9998 24.1994C66.7519 22.9216 64.9928 22.1764 62.9555 21.71L62.2868 24.6312ZM66.8728 29.2886C66.8728 31.1162 66.1171 32.5423 64.8026 33.5507C63.4507 34.5878 61.4186 35.2422 58.8491 35.2422V38.2389C61.8916 38.2389 64.6205 37.4674 66.6266 35.9284C68.6701 34.3608 69.8695 32.0609 69.8695 29.2886H66.8728ZM58.8491 35.2422C56.2765 35.2422 54.3289 34.5523 53.055 33.5066C51.8075 32.4827 51.1015 31.0381 51.1015 29.2426H48.1048C48.1048 31.909 49.1927 34.2134 51.1537 35.823C53.0883 37.4109 55.7637 38.2389 58.8491 38.2389V35.2422ZM95.3005 36.1426L93.8988 36.6718L94.2646 37.6409H95.3005V36.1426ZM82.6045 2.51658V1.01821H80.4372L81.2028 3.04584L82.6045 2.51658ZM88.8605 2.51658L90.2612 1.98427L89.894 1.01821H88.8605V2.51658ZM96.2205 21.8826L97.6287 21.3705L97.625 21.3604L97.6212 21.3503L96.2205 21.8826ZM98.3365 28.5986L96.8904 28.9908L98.3102 34.2264L99.7789 29.0043L98.3365 28.5986ZM100.499 21.8826L101.9 22.4128L101.901 22.4091L100.499 21.8826ZM107.767 2.51658V1.01821H106.728L106.364 1.9901L107.767 2.51658ZM113.885 2.51658L115.289 3.03911L116.041 1.01821H113.885V2.51658ZM101.373 36.1426V37.6409H102.414L102.777 36.6651L101.373 36.1426ZM96.7023 35.6133L84.0063 1.98731L81.2028 3.04584L93.8988 36.6718L96.7023 35.6133ZM82.6045 4.01495H88.8605V1.01821H82.6045V4.01495ZM87.4599 3.04888L94.8199 22.4149L97.6212 21.3503L90.2612 1.98427L87.4599 3.04888ZM94.8124 22.3946C95.5345 24.3804 96.1657 26.3184 96.8904 28.9908L99.7827 28.2064C99.0354 25.4508 98.3786 23.4328 97.6287 21.3705L94.8124 22.3946ZM99.7789 29.0043C100.597 26.0942 101.274 24.0667 101.9 22.4128L99.0971 21.3523C98.4349 23.1025 97.7317 25.215 96.8941 28.1929L99.7789 29.0043ZM101.901 22.4091L109.169 3.04306L106.364 1.9901L99.0957 21.3561L101.901 22.4091ZM107.767 4.01495H113.885V1.01821H107.767V4.01495ZM112.48 1.99405L99.9682 35.62L102.777 36.6651L115.289 3.03911L112.48 1.99405ZM101.373 34.6442H95.3005V37.6409H101.373V34.6442ZM134.502 26.0686L134.506 27.5669L136.001 27.5629V26.0686H134.502ZM117.39 26.1146L117.386 24.6162L115.729 24.6207L115.9 26.2688L117.39 26.1146ZM129.396 28.7826V27.2842H128.279L127.96 28.3548L129.396 28.7826ZM134.594 28.7826L136.065 29.0686L136.412 27.2842H134.594V28.7826ZM117.528 22.5266L116.049 22.2867L115.767 24.0249H117.528V22.5266ZM128.936 22.5266V24.0249H130.435V22.5266H128.936ZM123.554 35.2422C120.551 35.2422 118.075 34.1566 116.348 32.3611C114.617 30.5615 113.553 27.9582 113.553 24.7806H110.556C110.556 28.6409 111.86 32.0177 114.189 34.4385C116.521 36.8635 119.796 38.2389 123.554 38.2389V35.2422ZM113.553 24.7806C113.553 21.5436 114.603 18.9145 116.303 17.1073C117.996 15.3069 120.42 14.2269 123.37 14.2269V11.2302C119.65 11.2302 116.417 12.6113 114.119 15.0544C111.828 17.4906 110.556 20.8875 110.556 24.7806H113.553ZM123.37 14.2269C126.429 14.2269 128.798 15.2412 130.405 16.9257C132.02 18.6176 133.004 21.1293 133.004 24.3666H136.001C136.001 20.5199 134.822 17.2126 132.573 14.8565C130.317 12.4929 127.12 11.2302 123.37 11.2302V14.2269ZM133.004 24.3666V26.0686H136.001V24.3666H133.004ZM134.498 24.5702L117.386 24.6162L117.394 27.6129L134.506 27.5669L134.498 24.5702ZM115.9 26.2688C116.13 28.4901 116.854 30.3781 118.238 31.7084C119.636 33.0526 121.509 33.6389 123.646 33.6389V30.6422C122.057 30.6422 121.01 30.2166 120.315 29.5483C119.605 28.866 119.065 27.741 118.881 25.9604L115.9 26.2688ZM123.646 33.6389C127.095 33.6389 129.926 32.2518 130.832 29.2103L127.96 28.3548C127.578 29.6373 126.361 30.6422 123.646 30.6422V33.6389ZM129.396 30.2809H134.594V27.2842H129.396V30.2809ZM133.123 28.4966C132.71 30.6211 131.637 32.2723 130.061 33.4093C128.469 34.5576 126.275 35.2422 123.554 35.2422V38.2389C126.768 38.2389 129.611 37.4285 131.814 35.8399C134.032 34.2399 135.512 31.9121 136.065 29.0686L133.123 28.4966ZM123.416 15.8302C121.485 15.8302 119.769 16.3586 118.445 17.5283C117.129 18.6915 116.364 20.3446 116.049 22.2867L119.007 22.7664C119.244 21.3046 119.768 20.3587 120.429 19.7738C121.084 19.1956 122.035 18.8269 123.416 18.8269V15.8302ZM117.528 24.0249H128.936V21.0282H117.528V24.0249ZM130.435 22.5266C130.435 20.6042 129.761 18.8924 128.465 17.6661C127.177 16.4472 125.404 15.8302 123.416 15.8302V18.8269C124.787 18.8269 125.774 19.245 126.406 19.843C127.03 20.4338 127.438 21.321 127.438 22.5266H130.435ZM155.922 16.5466L154.607 17.2658L156.919 21.4908L157.412 16.7L155.922 16.5466ZM156.244 13.4186V11.9202H154.892L154.753 13.2651L156.244 13.4186ZM161.442 13.4186H162.94V11.9202H161.442V13.4186ZM137.844 37.5226V36.0242H136.165L136.355 37.6918L137.844 37.5226ZM143.456 37.5226L144.943 37.3367L144.778 36.0242H143.456V37.5226ZM155.876 32.2326H157.374V27.328L154.633 31.3952L155.876 32.2326ZM139.204 24.2746C139.204 21.2875 140.176 18.765 141.785 17.0054C143.382 15.2577 145.677 14.1809 148.516 14.1809V11.1842C144.868 11.1842 141.759 12.5914 139.572 14.9838C137.397 17.3642 136.207 20.6377 136.207 24.2746H139.204ZM148.516 14.1809C151.497 14.1809 153.591 15.4086 154.607 17.2658L157.236 15.8273C155.584 12.8086 152.342 11.1842 148.516 11.1842V14.1809ZM157.412 16.7L157.734 13.572L154.753 13.2651L154.431 16.3931L157.412 16.7ZM156.244 14.9169H161.442V11.9202H156.244V14.9169ZM159.943 13.4186V34.9926H162.94V13.4186H159.943ZM159.943 34.9926C159.943 38.4887 158.899 41.1667 157.166 42.9624C155.44 44.7518 152.878 45.8222 149.528 45.8222V48.8189C153.537 48.8189 156.933 47.5203 159.323 45.0433C161.707 42.5725 162.94 39.0864 162.94 34.9926H159.943ZM149.528 45.8222C146.547 45.8222 144.158 44.975 142.457 43.5499C140.764 42.1322 139.639 40.0495 139.332 37.3534L136.355 37.6918C136.739 41.0676 138.189 43.884 140.533 45.8472C142.868 47.8032 145.977 48.8189 149.528 48.8189V45.8222ZM137.844 39.0209H143.456V36.0242H137.844V39.0209ZM141.969 37.7084C142.198 39.5396 143.035 41.0871 144.419 42.1578C145.783 43.213 147.557 43.7129 149.528 43.7129V40.7162C148.048 40.7162 146.97 40.3421 146.253 39.7874C145.555 39.248 145.082 38.4496 144.943 37.3367L141.969 37.7084ZM149.528 43.7129C151.778 43.7129 153.767 42.9973 155.199 41.5947C156.635 40.189 157.374 38.2278 157.374 36.0046H154.377C154.377 37.5533 153.875 38.6972 153.102 39.4535C152.327 40.2129 151.141 40.7162 149.528 40.7162V43.7129ZM157.374 36.0046V32.2326H154.377V36.0046H157.374ZM154.633 31.3952C153.551 33.0014 151.274 34.1842 148.378 34.1842V37.1809C152.013 37.1809 155.349 35.6957 157.118 33.0699L154.633 31.3952ZM148.378 34.1842C145.553 34.1842 143.294 33.1354 141.731 31.4321C140.156 29.7168 139.204 27.2434 139.204 24.2746H136.207C136.207 27.8838 137.371 31.1143 139.523 33.4585C141.685 35.8147 144.762 37.1809 148.378 37.1809V34.1842ZM141.865 24.1366C141.865 26.3617 142.578 28.4021 143.928 29.9048C145.291 31.4214 147.23 32.3049 149.482 32.3049V29.3082C148.053 29.3082 146.933 28.7657 146.157 27.9019C145.368 27.0241 144.862 25.7294 144.862 24.1366H141.865ZM149.482 32.3049C151.782 32.3049 153.764 31.4862 155.161 29.9705C156.545 28.4686 157.236 26.4132 157.236 24.1366H154.239C154.239 25.816 153.735 27.0956 152.957 27.9397C152.192 28.77 151.045 29.3082 149.482 29.3082V32.3049ZM157.236 24.1366C157.236 21.9043 156.555 19.879 155.17 18.3982C153.774 16.905 151.793 16.1062 149.482 16.1062V19.1029C151.08 19.1029 152.227 19.6382 152.981 20.4449C153.747 21.2641 154.239 22.5048 154.239 24.1366H157.236ZM149.482 16.1062C147.22 16.1062 145.281 16.9688 143.918 18.4641C142.568 19.9455 141.865 21.9553 141.865 24.1366H144.862C144.862 22.5918 145.355 21.3357 146.133 20.4826C146.898 19.6433 148.017 19.1029 149.482 19.1029V16.1062ZM174.656 22.4346L174.545 20.9403L174.541 20.9406L174.656 22.4346ZM181.464 21.9286L181.575 23.4228L182.962 23.3197V21.9286H181.464ZM171.62 20.8706V22.3689H173.118V20.8706H171.62ZM166.836 20.8706H165.337V22.3689H166.836V20.8706ZM186.938 36.1426V37.6409H188.436V36.1426H186.938ZM182.016 36.1426L180.528 36.3259L180.691 37.6409H182.016V36.1426ZM181.602 32.7846L183.089 32.6012L182.39 26.9344L180.216 32.2141L181.602 32.7846ZM181.51 25.7466H183.008V24.1273L181.394 24.2527L181.51 25.7466ZM176.772 26.1146L176.656 24.6207L176.645 24.6215L176.634 24.6225L176.772 26.1146ZM174.012 35.2422C171.883 35.2422 170.333 34.6272 169.329 33.7016C168.339 32.7873 167.736 31.4373 167.736 29.6566H164.739C164.739 32.1539 165.609 34.3458 167.297 35.904C168.974 37.4509 171.31 38.2389 174.012 38.2389V35.2422ZM167.736 29.6566C167.736 27.9618 168.333 26.6891 169.405 25.7674C170.518 24.8109 172.279 24.1202 174.77 23.9285L174.541 20.9406C171.65 21.1629 169.202 21.9902 167.452 23.4947C165.661 25.0341 164.739 27.1654 164.739 29.6566H167.736ZM174.767 23.9288L181.575 23.4228L181.353 20.4343L174.545 20.9403L174.767 23.9288ZM182.962 21.9286V21.4226H179.965V21.9286H182.962ZM182.962 21.4226C182.962 19.5746 182.398 18.0205 181.159 16.9643C179.964 15.9464 178.382 15.6002 176.772 15.6002V18.5969C178.013 18.5969 178.777 18.8717 179.215 19.2453C179.609 19.5806 179.965 20.1885 179.965 21.4226H182.962ZM176.772 15.6002C174.938 15.6002 173.291 15.9776 172.065 16.8813C170.774 17.8327 170.121 19.2422 170.121 20.8706H173.118C173.118 20.107 173.386 19.6305 173.842 19.2938C174.364 18.9096 175.293 18.5969 176.772 18.5969V15.6002ZM171.62 19.3722H166.836V22.3689H171.62V19.3722ZM168.334 20.8706C168.334 18.8601 169.143 17.2581 170.564 16.1257C172.017 14.9681 174.212 14.2269 177.048 14.2269V11.2302C173.719 11.2302 170.809 12.099 168.696 13.782C166.553 15.49 165.337 17.9591 165.337 20.8706H168.334ZM177.048 14.2269C179.847 14.2269 181.906 14.9825 183.257 16.2607C184.595 17.5265 185.439 19.4945 185.439 22.3426H188.436C188.436 18.8886 187.394 16.0496 185.317 14.0839C183.252 12.1307 180.366 11.2302 177.048 11.2302V14.2269ZM185.439 22.3426V36.1426H188.436V22.3426H185.439ZM186.938 34.6442H182.016V37.6409H186.938V34.6442ZM183.503 35.9592L183.089 32.6012L180.114 32.9679L180.528 36.3259L183.503 35.9592ZM180.216 32.2141C179.573 33.7758 177.23 35.2422 174.012 35.2422V38.2389C177.877 38.2389 181.698 36.4853 182.987 33.3551L180.216 32.2141ZM175.852 34.0069C177.875 34.0069 179.696 33.3952 181.018 32.1117C182.346 30.8222 183.008 29.013 183.008 26.9426H180.011C180.011 28.3681 179.569 29.3419 178.931 29.9615C178.286 30.587 177.278 31.0102 175.852 31.0102V34.0069ZM183.008 26.9426V25.7466H180.011V26.9426H183.008ZM181.394 24.2527L176.656 24.6207L176.888 27.6084L181.626 27.2404L181.394 24.2527ZM176.634 24.6225C174.788 24.7926 173.261 25.196 172.167 25.9876C170.969 26.8551 170.443 28.0757 170.443 29.4266H173.44C173.44 28.9374 173.582 28.6631 173.924 28.4151C174.372 28.0912 175.259 27.7586 176.909 27.6066L176.634 24.6225ZM170.443 29.4266C170.443 30.824 170.93 32.0766 172.031 32.9288C173.063 33.7277 174.425 34.0069 175.852 34.0069V31.0102C174.748 31.0102 174.155 30.7834 173.865 30.5589C173.644 30.3876 173.44 30.0992 173.44 29.4266H170.443ZM190.703 29.2426V27.7442H189.204V29.2426H190.703ZM196.039 29.2426L197.537 29.2077L197.503 27.7442H196.039V29.2426ZM201.559 27.3106L201.215 28.769L201.227 28.7717L201.559 27.3106ZM197.465 26.3446L197.809 24.8863L197.801 24.8844L197.793 24.8827L197.465 26.3446ZM209.011 20.0886V21.5869H210.525L210.509 20.073L209.011 20.0886ZM203.675 20.0886L202.177 20.1242L202.212 21.5869H203.675V20.0886ZM199.627 22.2046L199.28 23.6622L199.283 23.6629L199.627 22.2046ZM203.721 23.1706L203.377 24.6289L203.386 24.6312L203.721 23.1706ZM190.703 30.7409H196.039V27.7442H190.703V30.7409ZM194.541 29.2774C194.573 30.6607 195.123 31.9002 196.2 32.7634C197.241 33.5978 198.622 33.9609 200.133 33.9609V30.9642C199.068 30.9642 198.425 30.7063 198.074 30.4252C197.759 30.173 197.551 29.8025 197.537 29.2077L194.541 29.2774ZM200.133 33.9609C201.616 33.9609 202.966 33.6663 203.99 32.9604C205.079 32.2099 205.679 31.0705 205.679 29.7486H202.682C202.682 30.0826 202.569 30.3003 202.29 30.4928C201.946 30.7298 201.272 30.9642 200.133 30.9642V33.9609ZM205.679 29.7486C205.679 28.8881 205.442 27.9761 204.696 27.2189C204.004 26.5176 203.027 26.1078 201.891 25.8495L201.227 28.7717C202.114 28.9734 202.448 29.2076 202.562 29.3228C202.62 29.382 202.682 29.459 202.682 29.7486H205.679ZM201.903 25.8523L197.809 24.8863L197.121 27.8029L201.215 28.7689L201.903 25.8523ZM197.793 24.8827C195.888 24.4546 194.695 23.8355 193.976 23.0838C193.296 22.3725 192.891 21.3853 192.891 19.8586H189.894C189.894 21.9658 190.478 23.7617 191.811 25.1549C193.104 26.5077 194.947 27.3146 197.136 27.8065L197.793 24.8827ZM192.891 19.8586C192.891 18.0986 193.613 16.7539 194.846 15.8097C196.117 14.8356 198.023 14.2269 200.409 14.2269V11.2302C197.551 11.2302 194.949 11.9556 193.023 13.4309C191.058 14.9363 189.894 17.1565 189.894 19.8586H192.891ZM200.409 14.2269C202.68 14.2269 204.451 14.8803 205.634 15.8915C206.797 16.8863 207.494 18.31 207.512 20.1042L210.509 20.073C210.482 17.4512 209.43 15.1948 207.581 13.6137C205.751 12.0488 203.243 11.2302 200.409 11.2302V14.2269ZM209.011 18.5902H203.675V21.5869H209.011V18.5902ZM205.173 20.0529C205.142 18.7518 204.681 17.5478 203.737 16.6761C202.801 15.8123 201.544 15.4162 200.179 15.4162V18.4129C200.975 18.4129 201.444 18.6379 201.704 18.8781C201.956 19.1104 202.162 19.4933 202.177 20.1242L205.173 20.0529ZM200.179 15.4162C198.87 15.4162 197.629 15.7134 196.682 16.4512C195.686 17.2272 195.184 18.3602 195.184 19.6286H198.181C198.181 19.195 198.324 18.971 198.523 18.8155C198.772 18.6217 199.28 18.4129 200.179 18.4129V15.4162ZM195.184 19.6286C195.184 20.7296 195.644 21.6664 196.453 22.3629C197.205 23.0098 198.203 23.4059 199.28 23.6622L199.974 20.747C199.118 20.5432 198.645 20.2954 198.408 20.0913C198.228 19.9368 198.181 19.8156 198.181 19.6286H195.184ZM199.283 23.6629L203.377 24.6289L204.065 21.7123L199.971 20.7463L199.283 23.6629ZM203.386 24.6312C205.167 25.0388 206.283 25.6046 206.956 26.2932C207.583 26.936 207.972 27.8381 207.972 29.2886H210.969C210.969 27.2431 210.392 25.5232 209.099 24.1994C207.852 22.9216 206.092 22.1764 204.055 21.71L203.386 24.6312ZM207.972 29.2886C207.972 31.1162 207.217 32.5423 205.902 33.5507C204.55 34.5878 202.518 35.2422 199.949 35.2422V38.2389C202.991 38.2389 205.72 37.4674 207.726 35.9284C209.77 34.3608 210.969 32.0609 210.969 29.2886H207.972ZM199.949 35.2422C197.376 35.2422 195.429 34.5523 194.155 33.5066C192.907 32.4827 192.201 31.0381 192.201 29.2426H189.204C189.204 31.909 190.292 34.2134 192.253 35.823C194.188 37.4109 196.863 38.2389 199.949 38.2389V35.2422ZM232.858 36.1426V37.6409H234.357V36.1426H232.858ZM226.97 36.1426H225.472V37.6409H226.97V36.1426ZM226.97 2.51658V1.01821H225.472V2.51658H226.97ZM232.858 2.51658H234.357V1.01821H232.858V2.51658ZM232.858 16.4086H231.36V17.9069H232.858V16.4086ZM247.762 16.4086V17.9069H249.261V16.4086H247.762ZM247.762 2.51658V1.01821H246.264V2.51658H247.762ZM253.65 2.51658H255.148V1.01821H253.65V2.51658ZM253.65 36.1426V37.6409H255.148V36.1426H253.65ZM247.762 36.1426H246.264V37.6409H247.762V36.1426ZM247.762 21.8826H249.261V20.3842H247.762V21.8826ZM232.858 21.8826V20.3842H231.36V21.8826H232.858ZM232.858 34.6442H226.97V37.6409H232.858V34.6442ZM228.469 36.1426V2.51658H225.472V36.1426H228.469ZM226.97 4.01495H232.858V1.01821H226.97V4.01495ZM231.36 2.51658V16.4086H234.357V2.51658H231.36ZM232.858 17.9069H247.762V14.9102H232.858V17.9069ZM249.261 16.4086V2.51658H246.264V16.4086H249.261ZM247.762 4.01495H253.65V1.01821H247.762V4.01495ZM252.152 2.51658V36.1426H255.148V2.51658H252.152ZM253.65 34.6442H247.762V37.6409H253.65V34.6442ZM249.261 36.1426V21.8826H246.264V36.1426H249.261ZM247.762 20.3842H232.858V23.3809H247.762V20.3842ZM231.36 21.8826V36.1426H234.357V21.8826H231.36ZM260.447 24.7346C260.447 21.5656 261.582 18.9722 263.428 17.1704C265.278 15.3651 267.926 14.2729 271.093 14.2729V11.2762C267.222 11.2762 263.798 12.6221 261.335 15.0258C258.869 17.433 257.45 20.8196 257.45 24.7346H260.447ZM271.093 14.2729C274.26 14.2729 276.908 15.3651 278.757 17.1704C280.604 18.9722 281.738 21.5656 281.738 24.7346H284.735C284.735 20.8196 283.317 17.433 280.851 15.0258C278.388 12.6221 274.964 11.2762 271.093 11.2762V14.2729ZM281.738 24.7346C281.738 27.9036 280.604 30.497 278.757 32.2988C276.908 34.1041 274.26 35.1962 271.093 35.1962V38.1929C274.964 38.1929 278.388 36.8471 280.851 34.4434C283.317 32.0362 284.735 28.6496 284.735 24.7346H281.738ZM271.093 35.1962C267.926 35.1962 265.278 34.1041 263.428 32.2988C261.582 30.497 260.447 27.9036 260.447 24.7346H257.45C257.45 28.6496 258.869 32.0362 261.335 34.4434C263.798 36.8471 267.222 38.1929 271.093 38.1929V35.1962ZM263.062 24.7346C263.062 27.1289 263.838 29.2518 265.288 30.7883C266.744 32.3315 268.783 33.1789 271.093 33.1789V30.1822C269.539 30.1822 268.312 29.6266 267.468 28.7319C266.617 27.8304 266.059 26.4802 266.059 24.7346H263.062ZM271.093 33.1789C273.403 33.1789 275.442 32.3315 276.898 30.7883C278.347 29.2518 279.123 27.1289 279.123 24.7346H276.126C276.126 26.4802 275.568 27.8304 274.718 28.7319C273.874 29.6266 272.647 30.1822 271.093 30.1822V33.1789ZM279.123 24.7346C279.123 22.3402 278.347 20.2174 276.898 18.6809C275.442 17.1376 273.403 16.2902 271.093 16.2902V19.2869C272.647 19.2869 273.874 19.8425 274.718 20.7373C275.568 21.6388 276.126 22.9889 276.126 24.7346H279.123ZM271.093 16.2902C268.783 16.2902 266.744 17.1376 265.288 18.6809C263.838 20.2174 263.062 22.3402 263.062 24.7346H266.059C266.059 22.9889 266.617 21.6388 267.468 20.7373C268.312 19.8425 269.539 19.2869 271.093 19.2869V16.2902ZM295.189 36.1426V37.6409H296.687V36.1426H295.189ZM289.577 36.1426H288.078V37.6409H289.577V36.1426ZM289.577 18.1106H291.075V16.6122H289.577V18.1106ZM285.207 18.1106H283.708V19.6089H285.207V18.1106ZM285.207 13.4186V11.9202H283.708V13.4186H285.207ZM289.577 13.4186V14.9169H291.075V13.4186H289.577ZM289.577 6.33458V4.83621H288.078V6.33458H289.577ZM295.189 6.33458H296.687V4.83621H295.189V6.33458ZM295.189 13.4186H293.69V14.9169H295.189V13.4186ZM299.604 13.4186H301.103V11.9202H299.604V13.4186ZM299.604 18.1106V19.6089H301.103V18.1106H299.604ZM295.189 18.1106V16.6122H293.69V18.1106H295.189ZM295.189 34.6442H289.577V37.6409H295.189V34.6442ZM291.075 36.1426V18.1106H288.078V36.1426H291.075ZM289.577 16.6122H285.207V19.6089H289.577V16.6122ZM286.705 18.1106V13.4186H283.708V18.1106H286.705ZM285.207 14.9169H289.577V11.9202H285.207V14.9169ZM291.075 13.4186V6.33458H288.078V13.4186H291.075ZM289.577 7.83295H295.189V4.83621H289.577V7.83295ZM293.69 6.33458V13.4186H296.687V6.33458H293.69ZM295.189 14.9169H299.604V11.9202H295.189V14.9169ZM298.106 13.4186V18.1106H301.103V13.4186H298.106ZM299.604 16.6122H295.189V19.6089H299.604V16.6122ZM293.69 18.1106V36.1426H296.687V18.1106H293.69ZM301.345 29.2426V27.7442H299.847V29.2426H301.345ZM306.681 29.2426L308.179 29.2077L308.145 27.7442H306.681V29.2426ZM312.201 27.3106L311.857 28.769L311.869 28.7717L312.201 27.3106ZM308.107 26.3446L308.451 24.8863L308.444 24.8844L308.436 24.8827L308.107 26.3446ZM319.653 20.0886V21.5869H321.167L321.152 20.073L319.653 20.0886ZM314.317 20.0886L312.819 20.1242L312.854 21.5869H314.317V20.0886ZM310.269 22.2046L309.922 23.6622L309.925 23.6629L310.269 22.2046ZM314.363 23.1706L314.019 24.6289L314.029 24.6312L314.363 23.1706ZM301.345 30.7409H306.681V27.7442H301.345V30.7409ZM305.183 29.2774C305.216 30.6607 305.766 31.9002 306.842 32.7634C307.883 33.5978 309.264 33.9609 310.775 33.9609V30.9642C309.71 30.9642 309.067 30.7063 308.717 30.4252C308.402 30.173 308.193 29.8025 308.179 29.2077L305.183 29.2774ZM310.775 33.9609C312.258 33.9609 313.608 33.6663 314.633 32.9604C315.722 32.2099 316.322 31.0705 316.322 29.7486H313.325C313.325 30.0826 313.212 30.3003 312.932 30.4928C312.588 30.7298 311.915 30.9642 310.775 30.9642V33.9609ZM316.322 29.7486C316.322 28.8881 316.085 27.9761 315.338 27.2189C314.647 26.5176 313.67 26.1078 312.533 25.8495L311.869 28.7717C312.757 28.9734 313.091 29.2076 313.204 29.3228C313.263 29.382 313.325 29.459 313.325 29.7486H316.322ZM312.545 25.8523L308.451 24.8863L307.763 27.8029L311.857 28.7689L312.545 25.8523ZM308.436 24.8827C306.531 24.4546 305.338 23.8355 304.619 23.0838C303.939 22.3725 303.534 21.3853 303.534 19.8586H300.537C300.537 21.9658 301.121 23.7617 302.453 25.1549C303.747 26.5077 305.59 27.3146 307.779 27.8065L308.436 24.8827ZM303.534 19.8586C303.534 18.0986 304.256 16.7539 305.488 15.8097C306.76 14.8356 308.665 14.2269 311.051 14.2269V11.2302C308.193 11.2302 305.591 11.9556 303.666 13.4309C301.701 14.9363 300.537 17.1565 300.537 19.8586H303.534ZM311.051 14.2269C313.323 14.2269 315.093 14.8803 316.276 15.8915C317.44 16.8863 318.136 18.31 318.155 20.1042L321.152 20.073C321.124 17.4512 320.073 15.1948 318.224 13.6137C316.393 12.0488 313.886 11.2302 311.051 11.2302V14.2269ZM319.653 18.5902H314.317V21.5869H319.653V18.5902ZM315.815 20.0529C315.784 18.7518 315.323 17.5478 314.379 16.6761C313.443 15.8123 312.187 15.4162 310.821 15.4162V18.4129C311.618 18.4129 312.086 18.6379 312.346 18.8781C312.598 19.1104 312.804 19.4933 312.819 20.1242L315.815 20.0529ZM310.821 15.4162C309.512 15.4162 308.272 15.7134 307.325 16.4512C306.328 17.2272 305.827 18.3602 305.827 19.6286H308.824C308.824 19.195 308.966 18.971 309.166 18.8155C309.415 18.6217 309.922 18.4129 310.821 18.4129V15.4162ZM305.827 19.6286C305.827 20.7296 306.286 21.6664 307.096 22.3629C307.847 23.0098 308.846 23.4059 309.922 23.6622L310.616 20.747C309.761 20.5432 309.287 20.2954 309.05 20.0913C308.871 19.9368 308.824 19.8156 308.824 19.6286H305.827ZM309.925 23.6629L314.019 24.6289L314.707 21.7123L310.613 20.7463L309.925 23.6629ZM314.029 24.6312C315.81 25.0388 316.926 25.6046 317.598 26.2932C318.226 26.936 318.615 27.8381 318.615 29.2886H321.612C321.612 27.2431 321.035 25.5232 319.742 24.1994C318.494 22.9216 316.735 22.1764 314.698 21.71L314.029 24.6312ZM318.615 29.2886C318.615 31.1162 317.859 32.5423 316.545 33.5507C315.193 34.5878 313.161 35.2422 310.591 35.2422V38.2389C313.634 38.2389 316.363 37.4674 318.369 35.9284C320.412 34.3608 321.612 32.0609 321.612 29.2886H318.615ZM310.591 35.2422C308.019 35.2422 306.071 34.5523 304.797 33.5066C303.55 32.4827 302.844 31.0381 302.844 29.2426H299.847C299.847 31.909 300.935 34.2134 302.896 35.823C304.831 37.4109 307.506 38.2389 310.591 38.2389V35.2422ZM346.558 11.7626V13.2609H348.103L348.056 11.7172L346.558 11.7626ZM340.67 11.7626L339.174 11.8338L339.242 13.2609H340.67V11.7626ZM333.264 16.0866L332.929 17.547L332.938 17.5489L332.946 17.5507L333.264 16.0866ZM338.554 17.2366L338.236 18.7008L338.238 18.7012L338.554 17.2366ZM322.822 26.8966V25.3982H321.289L321.324 26.9309L322.822 26.8966ZM328.71 26.8966L330.208 26.8724L330.185 25.3982H328.71V26.8966ZM337.312 22.7566L336.985 24.2187L336.995 24.221L337.312 22.7566ZM331.976 21.5606L332.304 20.0985L332.295 20.0965L331.976 21.5606ZM324.781 11.9006C324.781 9.40254 325.801 7.32728 327.567 5.85111C329.352 4.35839 331.981 3.41695 335.242 3.41695V0.420208C331.419 0.420208 328.068 1.52577 325.645 3.55204C323.201 5.59487 321.784 8.51062 321.784 11.9006H324.781ZM335.242 3.41695C338.376 3.41695 340.78 4.28322 342.4 5.69368C344.003 7.08877 344.98 9.13676 345.061 11.808L348.056 11.7172C347.953 8.31639 346.676 5.44238 344.368 3.43347C342.078 1.43994 338.916 0.420208 335.242 0.420208V3.41695ZM346.558 10.2642H340.67V13.2609H346.558V10.2642ZM342.167 11.6913C342.081 9.87869 341.371 8.31377 340.058 7.22303C338.769 6.15309 337.051 5.66421 335.15 5.66421V8.66094C336.561 8.66094 337.534 9.02306 338.143 9.52862C338.727 10.0134 339.122 10.7485 339.174 11.8338L342.167 11.6913ZM335.15 5.66421C333.113 5.66421 331.268 6.15216 329.893 7.1926C328.476 8.26548 327.672 9.84742 327.672 11.7166H330.669C330.669 10.7797 331.038 10.0847 331.702 9.58205C332.409 9.04699 333.554 8.66094 335.15 8.66094V5.66421ZM327.672 11.7166C327.672 13.1991 328.081 14.5317 329.075 15.5854C330.033 16.6003 331.38 17.1915 332.929 17.547L333.599 14.6262C332.342 14.3376 331.643 13.9399 331.255 13.5288C330.904 13.1565 330.669 12.626 330.669 11.7166H327.672ZM332.946 17.5507L338.236 18.7007L338.873 15.7724L333.583 14.6224L332.946 17.5507ZM338.238 18.7012C340.942 19.2853 342.757 20.2298 343.894 21.4458C345.003 22.6309 345.612 24.2266 345.612 26.4366H348.609C348.609 23.6325 347.814 21.2492 346.083 19.3984C344.38 17.5784 341.916 16.4298 338.871 15.772L338.238 18.7012ZM345.612 26.4366C345.612 29.1435 344.573 31.2902 342.785 32.7853C340.972 34.3023 338.269 35.2422 334.828 35.2422V38.2389C338.793 38.2389 342.232 37.1549 344.708 35.0839C347.21 32.991 348.609 29.9856 348.609 26.4366H345.612ZM334.828 35.2422C331.495 35.2422 328.891 34.3557 327.135 32.9187C325.405 31.5034 324.38 29.4631 324.32 26.8623L321.324 26.9309C321.403 30.356 322.792 33.2377 325.237 35.238C327.655 37.2165 330.986 38.2389 334.828 38.2389V35.2422ZM322.822 28.3949H328.71V25.3982H322.822V28.3949ZM327.212 26.9207C327.242 28.7914 328.036 30.3739 329.478 31.4457C330.871 32.4806 332.74 32.9489 334.828 32.9489V29.9522C333.144 29.9522 331.978 29.5695 331.266 29.0405C330.603 28.5482 330.224 27.8538 330.208 26.8724L327.212 26.9207ZM334.828 32.9489C336.975 32.9489 338.909 32.4852 340.35 31.4766C341.847 30.4298 342.721 28.8515 342.721 26.9426H339.724C339.724 27.8396 339.356 28.5153 338.633 29.021C337.855 29.565 336.591 29.9522 334.828 29.9522V32.9489ZM342.721 26.9426C342.721 25.5505 342.358 24.2539 341.407 23.2161C340.484 22.2097 339.17 21.6259 337.63 21.2922L336.995 24.221C338.215 24.4852 338.855 24.8675 339.198 25.2411C339.511 25.5832 339.724 26.0806 339.724 26.9426H342.721ZM337.64 21.2945L332.304 20.0985L331.649 23.0227L336.985 24.2187L337.64 21.2945ZM332.295 20.0965C329.646 19.5197 327.792 18.5083 326.602 17.1921C325.431 15.8964 324.781 14.1702 324.781 11.9006H321.784C321.784 14.783 322.629 17.2658 324.379 19.2016C326.11 21.1168 328.602 22.3594 331.658 23.0246L332.295 20.0965ZM351.609 46.6766H350.111V48.1749H351.609V46.6766ZM351.609 13.4186V11.9202H350.111V13.4186H351.609ZM356.807 13.4186L358.297 13.2597L358.154 11.9202H356.807V13.4186ZM357.175 16.8686L355.685 17.0275L356.207 21.9242L358.501 17.5664L357.175 16.8686ZM357.221 33.1066L358.494 32.317L355.723 27.8463V33.1066H357.221ZM357.221 46.6766V48.1749H358.719V46.6766H357.221ZM353.107 46.6766V13.4186H350.111V46.6766H353.107ZM351.609 14.9169H356.807V11.9202H351.609V14.9169ZM355.317 13.5775L355.685 17.0275L358.665 16.7097L358.297 13.2597L355.317 13.5775ZM358.501 17.5664C359.559 15.5562 361.952 14.2269 364.995 14.2269V11.2302C361.138 11.2302 357.551 12.937 355.849 16.1707L358.501 17.5664ZM364.995 14.2269C367.809 14.2269 370.048 15.2383 371.595 16.9481C373.154 18.672 374.123 21.2323 374.123 24.5046H377.119C377.119 20.6469 375.972 17.3191 373.817 14.9376C371.649 12.5418 368.575 11.2302 364.995 11.2302V14.2269ZM374.123 24.5046C374.123 27.7881 373.227 30.4787 371.693 32.3198C370.185 34.1293 367.961 35.2422 364.995 35.2422V38.2389C368.791 38.2389 371.88 36.7759 373.995 34.2383C376.083 31.7324 377.119 28.3051 377.119 24.5046H374.123ZM364.995 35.2422C361.93 35.2422 359.564 34.0424 358.494 32.317L355.947 33.8961C357.73 36.7707 361.252 38.2389 364.995 38.2389V35.2422ZM355.723 33.1066V46.6766H358.719V33.1066H355.723ZM357.221 45.1782H351.609V48.1749H357.221V45.1782ZM355.769 24.7806C355.769 27.1345 356.499 29.2435 357.912 30.78C359.336 32.3285 361.347 33.1789 363.661 33.1789V30.1822C362.111 30.1822 360.925 29.6297 360.118 28.7517C359.3 27.8617 358.765 26.5206 358.765 24.7806H355.769ZM363.661 33.1789C366.023 33.1789 368.023 32.3145 369.417 30.7427C370.792 29.1921 371.461 27.0859 371.461 24.7806H368.465C368.465 26.5232 367.961 27.8671 367.174 28.7544C366.406 29.6207 365.255 30.1822 363.661 30.1822V33.1789ZM371.461 24.7806C371.461 22.4757 370.792 20.3612 369.421 18.8007C368.031 17.2178 366.031 16.3362 363.661 16.3362V19.3329C365.247 19.3329 366.398 19.9003 367.17 20.7785C367.961 21.679 368.465 23.0374 368.465 24.7806H371.461ZM363.661 16.3362C361.34 16.3362 359.328 17.2037 357.907 18.7634C356.499 20.3098 355.769 22.4273 355.769 24.7806H358.765C358.765 23.0399 359.3 21.6843 360.123 20.7813C360.933 19.8914 362.118 19.3329 363.661 19.3329V16.3362ZM380.254 24.7346C380.254 21.5656 381.389 18.9722 383.235 17.1704C385.084 15.3651 387.733 14.2729 390.899 14.2729V11.2762C387.028 11.2762 383.604 12.6221 381.142 15.0258C378.675 17.433 377.257 20.8196 377.257 24.7346H380.254ZM390.899 14.2729C394.066 14.2729 396.714 15.3651 398.564 17.1704C400.41 18.9722 401.545 21.5656 401.545 24.7346H404.542C404.542 20.8196 403.124 17.433 400.657 15.0258C398.194 12.6221 394.771 11.2762 390.899 11.2762V14.2729ZM401.545 24.7346C401.545 27.9036 400.41 30.497 398.564 32.2988C396.714 34.1041 394.066 35.1962 390.899 35.1962V38.1929C394.771 38.1929 398.194 36.8471 400.657 34.4434C403.124 32.0362 404.542 28.6496 404.542 24.7346H401.545ZM390.899 35.1962C387.733 35.1962 385.084 34.1041 383.235 32.2988C381.389 30.497 380.254 27.9036 380.254 24.7346H377.257C377.257 28.6496 378.675 32.0362 381.142 34.4434C383.604 36.8471 387.028 38.1929 390.899 38.1929V35.1962ZM382.869 24.7346C382.869 27.1289 383.645 29.2518 385.095 30.7883C386.55 32.3315 388.589 33.1789 390.899 33.1789V30.1822C389.345 30.1822 388.118 29.6266 387.274 28.7319C386.424 27.8304 385.866 26.4802 385.866 24.7346H382.869ZM390.899 33.1789C393.209 33.1789 395.248 32.3315 396.704 30.7883C398.154 29.2518 398.93 27.1289 398.93 24.7346H395.933C395.933 26.4802 395.375 27.8304 394.525 28.7319C393.68 29.6266 392.453 30.1822 390.899 30.1822V33.1789ZM398.93 24.7346C398.93 22.3402 398.154 20.2174 396.704 18.6809C395.248 17.1376 393.209 16.2902 390.899 16.2902V19.2869C392.453 19.2869 393.68 19.8425 394.525 20.7373C395.375 21.6388 395.933 22.9889 395.933 24.7346H398.93ZM390.899 16.2902C388.589 16.2902 386.55 17.1376 385.095 18.6809C383.645 20.2174 382.869 22.3402 382.869 24.7346H385.866C385.866 22.9889 386.424 21.6388 387.274 20.7373C388.118 19.8425 389.345 19.2869 390.899 19.2869V16.2902ZM414.995 36.1426V37.6409H416.493V36.1426H414.995ZM409.383 36.1426H407.885V37.6409H409.383V36.1426ZM409.383 18.1106H410.882V16.6122H409.383V18.1106ZM405.013 18.1106H403.515V19.6089H405.013V18.1106ZM405.013 13.4186V11.9202H403.515V13.4186H405.013ZM409.383 13.4186V14.9169H410.882V13.4186H409.383ZM409.383 6.33458V4.83621H407.885V6.33458H409.383ZM414.995 6.33458H416.493V4.83621H414.995V6.33458ZM414.995 13.4186H413.497V14.9169H414.995V13.4186ZM419.411 13.4186H420.91V11.9202H419.411V13.4186ZM419.411 18.1106V19.6089H420.91V18.1106H419.411ZM414.995 18.1106V16.6122H413.497V18.1106H414.995ZM414.995 34.6442H409.383V37.6409H414.995V34.6442ZM410.882 36.1426V18.1106H407.885V36.1426H410.882ZM409.383 16.6122H405.013V19.6089H409.383V16.6122ZM406.512 18.1106V13.4186H403.515V18.1106H406.512ZM405.013 14.9169H409.383V11.9202H405.013V14.9169ZM410.882 13.4186V6.33458H407.885V13.4186H410.882ZM409.383 7.83295H414.995V4.83621H409.383V7.83295ZM413.497 6.33458V13.4186H416.493V6.33458H413.497ZM414.995 14.9169H419.411V11.9202H414.995V14.9169ZM417.913 13.4186V18.1106H420.91V13.4186H417.913ZM419.411 16.6122H414.995V19.6089H419.411V16.6122ZM413.497 18.1106V36.1426H416.493V18.1106H413.497ZM421.152 29.2426V27.7442H419.654V29.2426H421.152ZM426.488 29.2426L427.986 29.2077L427.952 27.7442H426.488V29.2426ZM432.008 27.3106L431.664 28.769L431.676 28.7717L432.008 27.3106ZM427.914 26.3446L428.258 24.8863L428.25 24.8844L428.242 24.8827L427.914 26.3446ZM439.46 20.0886V21.5869H440.974L440.958 20.073L439.46 20.0886ZM434.124 20.0886L432.626 20.1242L432.661 21.5869H434.124V20.0886ZM430.076 22.2046L429.729 23.6622L429.732 23.6629L430.076 22.2046ZM434.17 23.1706L433.826 24.6289L433.836 24.6312L434.17 23.1706ZM421.152 30.7409H426.488V27.7442H421.152V30.7409ZM424.99 29.2774C425.022 30.6607 425.572 31.9002 426.649 32.7634C427.69 33.5978 429.071 33.9609 430.582 33.9609V30.9642C429.517 30.9642 428.874 30.7063 428.523 30.4252C428.209 30.173 428 29.8025 427.986 29.2077L424.99 29.2774ZM430.582 33.9609C432.065 33.9609 433.415 33.6663 434.439 32.9604C435.529 32.2099 436.128 31.0705 436.128 29.7486H433.132C433.132 30.0826 433.018 30.3003 432.739 30.4928C432.395 30.7298 431.721 30.9642 430.582 30.9642V33.9609ZM436.128 29.7486C436.128 28.8881 435.892 27.9761 435.145 27.2189C434.454 26.5176 433.476 26.1078 432.34 25.8495L431.676 28.7717C432.563 28.9734 432.897 29.2076 433.011 29.3228C433.069 29.382 433.132 29.459 433.132 29.7486H436.128ZM432.352 25.8523L428.258 24.8863L427.57 27.8029L431.664 28.7689L432.352 25.8523ZM428.242 24.8827C426.337 24.4546 425.144 23.8355 424.426 23.0838C423.745 22.3725 423.34 21.3853 423.34 19.8586H420.344C420.344 21.9658 420.927 23.7617 422.26 25.1549C423.553 26.5077 425.397 27.3146 427.585 27.8065L428.242 24.8827ZM423.34 19.8586C423.34 18.0986 424.062 16.7539 425.295 15.8097C426.566 14.8356 428.472 14.2269 430.858 14.2269V11.2302C428 11.2302 425.398 11.9556 423.472 13.4309C421.507 14.9363 420.344 17.1565 420.344 19.8586H423.34ZM430.858 14.2269C433.13 14.2269 434.9 14.8803 436.083 15.8915C437.246 16.8863 437.943 18.31 437.962 20.1042L440.958 20.073C440.931 17.4512 439.879 15.1948 438.03 13.6137C436.2 12.0488 433.692 11.2302 430.858 11.2302V14.2269ZM439.46 18.5902H434.124V21.5869H439.46V18.5902ZM435.622 20.0529C435.591 18.7518 435.13 17.5478 434.186 16.6761C433.25 15.8123 431.993 15.4162 430.628 15.4162V18.4129C431.424 18.4129 431.893 18.6379 432.153 18.8781C432.405 19.1104 432.611 19.4933 432.626 20.1242L435.622 20.0529ZM430.628 15.4162C429.319 15.4162 428.078 15.7134 427.131 16.4512C426.135 17.2272 425.634 18.3602 425.634 19.6286H428.63C428.63 19.195 428.773 18.971 428.973 18.8155C429.221 18.6217 429.729 18.4129 430.628 18.4129V15.4162ZM425.634 19.6286C425.634 20.7296 426.093 21.6664 426.902 22.3629C427.654 23.0098 428.653 23.4059 429.729 23.6622L430.423 20.747C429.567 20.5432 429.094 20.2954 428.857 20.0913C428.677 19.9368 428.63 19.8156 428.63 19.6286H425.634ZM429.732 23.6629L433.826 24.6289L434.514 21.7123L430.42 20.7463L429.732 23.6629ZM433.836 24.6312C435.616 25.0388 436.732 25.6046 437.405 26.2932C438.032 26.936 438.422 27.8381 438.422 29.2886H441.418C441.418 27.2431 440.841 25.5232 439.549 24.1994C438.301 22.9216 436.542 22.1764 434.504 21.71L433.836 24.6312ZM438.422 29.2886C438.422 31.1162 437.666 32.5423 436.351 33.5507C435 34.5878 432.967 35.2422 430.398 35.2422V38.2389C433.44 38.2389 436.169 37.4674 438.175 35.9284C440.219 34.3608 441.418 32.0609 441.418 29.2886H438.422ZM430.398 35.2422C427.825 35.2422 425.878 34.5523 424.604 33.5066C423.356 32.4827 422.65 31.0381 422.65 29.2426H419.654C419.654 31.909 420.742 34.2134 422.703 35.823C424.637 37.4109 427.313 38.2389 430.398 38.2389V35.2422Z" fill="url(#paint0_linear_0_2732)" mask="url(#path-1-outside-1_0_2732)"/>
<defs>
<linearGradient id="paint0_linear_0_2732" x1="220" y1="-15.8654" x2="220" y2="77.6165" gradientUnits="userSpaceOnUse">
<stop stop-color="white"/>
<stop offset="1" stop-color="white" stop-opacity="0"/>
</linearGradient>
</defs>
</svg>
