<svg width="24" height="24" viewBox="0 0 24 24" fill="none" xmlns="http://www.w3.org/2000/svg">
<path fill-rule="evenodd" clip-rule="evenodd" d="M18.2528 2.478C20.3134 1.61941 22.3806 3.68663 21.522 5.74723L15.5985 19.9637C14.4401 22.7439 10.3653 22.274 9.8701 19.303L9.13109 14.8689L4.69701 14.1299C1.72602 13.6348 1.25608 9.55996 4.03636 8.40151L18.2528 2.478ZM19.6759 4.978C19.8476 4.56588 19.4341 4.15243 19.022 4.32415L4.80559 10.2477C3.87883 10.6338 4.03548 11.9921 5.0258 12.1571L9.45989 12.8962C10.3028 13.0366 10.9634 13.6972 11.1039 14.5401L11.8429 18.9742C12.0079 19.9646 13.3662 20.1212 13.7524 19.1944L19.6759 4.978Z" fill="#B1B5C4"/>
</svg>
