<svg width="20" height="17" viewBox="0 0 20 17" fill="none" xmlns="http://www.w3.org/2000/svg">
<path d="M8 16.4883C7.45 16.4883 6.97934 16.2926 6.588 15.9013C6.19667 15.51 6.00067 15.039 6 14.4883C5.99934 13.9376 6.19534 13.467 6.588 13.0763C6.98067 12.6856 7.45134 12.4896 8 12.4883H18C18.55 12.4883 19.021 12.6843 19.413 13.0763C19.805 13.4683 20.0007 13.939 20 14.4883C19.9993 15.0376 19.8037 15.5086 19.413 15.9013C19.0223 16.294 18.5513 16.4896 18 16.4883H8ZM8 10.4883C7.45 10.4883 6.97934 10.2926 6.588 9.90129C6.19667 9.50995 6.00067 9.03895 6 8.48829C5.99934 7.93762 6.19534 7.46695 6.588 7.07629C6.98067 6.68562 7.45134 6.48962 8 6.48829H18C18.55 6.48829 19.021 6.68429 19.413 7.07629C19.805 7.46829 20.0007 7.93895 20 8.48829C19.9993 9.03762 19.8037 9.50862 19.413 9.90129C19.0223 10.294 18.5513 10.4896 18 10.4883H8ZM8 4.48829C7.45 4.48829 6.97934 4.29262 6.588 3.90129C6.19667 3.50995 6.00067 3.03895 6 2.48829C5.99934 1.93762 6.19534 1.46695 6.588 1.07629C6.98067 0.685621 7.45134 0.489621 8 0.488288H18C18.55 0.488288 19.021 0.684288 19.413 1.07629C19.805 1.46829 20.0007 1.93895 20 2.48829C19.9993 3.03762 19.8037 3.50862 19.413 3.90129C19.0223 4.29395 18.5513 4.48962 18 4.48829H8ZM2 4.48829C1.45 4.48829 0.979335 4.29262 0.588002 3.90129C0.196668 3.50995 0.000668362 3.03895 1.69491e-06 2.48829C-0.000664972 1.93762 0.195335 1.46695 0.588002 1.07629C0.980668 0.685621 1.45134 0.489621 2 0.488288C2.54867 0.486955 3.01967 0.682954 3.413 1.07629C3.80634 1.46962 4.002 1.94029 4 2.48829C3.998 3.03629 3.80234 3.50729 3.413 3.90129C3.02367 4.29529 2.55267 4.49095 2 4.48829ZM2 10.4883C1.45 10.4883 0.979335 10.2926 0.588002 9.90129C0.196668 9.50995 0.000668362 9.03895 1.69491e-06 8.48829C-0.000664972 7.93762 0.195335 7.46695 0.588002 7.07629C0.980668 6.68562 1.45134 6.48962 2 6.48829C2.54867 6.48695 3.01967 6.68295 3.413 7.07629C3.80634 7.46962 4.002 7.94029 4 8.48829C3.998 9.03629 3.80234 9.50729 3.413 9.90129C3.02367 10.2953 2.55267 10.491 2 10.4883ZM2 16.4883C1.45 16.4883 0.979335 16.2926 0.588002 15.9013C0.196668 15.51 0.000668362 15.039 1.69491e-06 14.4883C-0.000664972 13.9376 0.195335 13.467 0.588002 13.0763C0.980668 12.6856 1.45134 12.4896 2 12.4883C2.54867 12.487 3.01967 12.683 3.413 13.0763C3.80634 13.4696 4.002 13.9403 4 14.4883C3.998 15.0363 3.80234 15.5073 3.413 15.9013C3.02367 16.2953 2.55267 16.491 2 16.4883Z" fill="#B9C0DE"/>
</svg>
