<svg width="80" height="80" viewBox="0 0 80 80" fill="none" xmlns="http://www.w3.org/2000/svg">
<path d="M14.1112 62.3182C14.8549 67.8417 19.4298 72.1689 24.9971 72.4248C29.6818 72.6401 34.4406 72.7525 39.6811 72.7525C44.9216 72.7525 49.6802 72.6401 54.3648 72.4248C59.9324 72.1689 64.5072 67.8417 65.2509 62.3182C65.7364 58.7136 66.1365 55.0194 66.1365 51.2575C66.1365 47.4955 65.7364 43.8013 65.2509 40.1968C64.5072 34.6732 59.9324 30.346 54.3648 30.0901C49.6802 29.8747 44.9216 29.7624 39.6811 29.7624C34.4406 29.7624 29.6818 29.8747 24.9971 30.0901C19.4298 30.346 14.8549 34.6732 14.1112 40.1968C13.6259 43.8013 13.2256 47.4955 13.2256 51.2575C13.2256 55.0194 13.6259 58.7136 14.1112 62.3182Z" fill="#4894FE" stroke="#4894FE" stroke-width="5.069"/>
<path d="M24.8018 29.7627V21.4953C24.8018 13.2767 31.4643 6.61414 39.683 6.61414C47.9017 6.61414 54.5642 13.2767 54.5642 21.4953V29.7627" stroke="#4894FE" stroke-width="5.069" stroke-linecap="round" stroke-linejoin="round"/>
<path d="M47.9219 51.2567H47.9517M31.417 51.2567H31.4467" stroke="white" stroke-width="6.75867" stroke-linecap="round" stroke-linejoin="round"/>
</svg>
