<svg width="21" height="18" viewBox="0 0 21 18" fill="none" xmlns="http://www.w3.org/2000/svg">
<path fill-rule="evenodd" clip-rule="evenodd" d="M19.0996 5.50392C19.043 5.50059 18.9826 5.49926 18.9186 5.49992H16.3936C14.3256 5.49992 12.5566 7.12792 12.5566 9.24992C12.5566 11.3719 14.3266 12.9999 16.3936 12.9999H18.9186C18.9826 13.0006 19.0433 12.9993 19.1006 12.9959C19.5257 12.9703 19.9269 12.791 20.2295 12.4915C20.5322 12.192 20.7156 11.7927 20.7456 11.3679C20.7496 11.3079 20.7496 11.2429 20.7496 11.1829V7.31692C20.7496 7.25692 20.7496 7.19192 20.7456 7.13192C20.7156 6.70719 20.5322 6.30786 20.2295 6.00834C19.9269 5.70882 19.5247 5.52955 19.0996 5.50392ZM16.1726 10.2499C16.7046 10.2499 17.1356 9.80192 17.1356 9.24992C17.1356 8.69792 16.7046 8.24992 16.1726 8.24992C15.6396 8.24992 15.2086 8.69792 15.2086 9.24992C15.2086 9.80192 15.6396 10.2499 16.1726 10.2499Z" fill="#B9C0DE"/>
<path fill-rule="evenodd" clip-rule="evenodd" d="M18.918 14.5C18.9526 14.4986 18.987 14.5054 19.0184 14.5198C19.0499 14.5342 19.0775 14.5558 19.099 14.5829C19.1206 14.61 19.1354 14.6418 19.1424 14.6757C19.1493 14.7096 19.1481 14.7446 19.139 14.778C18.939 15.49 18.62 16.098 18.109 16.608C17.36 17.358 16.411 17.689 15.239 17.847C14.099 18 12.644 18 10.806 18H8.694C6.856 18 5.4 18 4.261 17.847C3.089 17.689 2.14 17.357 1.391 16.609C0.643 15.86 0.311 14.911 0.153 13.739C1.19209e-07 12.599 0 11.144 0 9.306V9.194C0 7.356 1.19209e-07 5.9 0.153 4.76C0.311 3.588 0.643 2.639 1.391 1.89C2.14 1.142 3.089 0.81 4.261 0.652C5.401 0.5 6.856 0.5 8.694 0.5H10.806C12.644 0.5 14.1 0.5 15.239 0.653C16.411 0.811 17.36 1.143 18.109 1.891C18.62 2.403 18.939 3.01 19.139 3.722C19.1481 3.75537 19.1493 3.79042 19.1424 3.82432C19.1354 3.85822 19.1206 3.89 19.099 3.91708C19.0775 3.94417 19.0499 3.96579 19.0184 3.9802C18.987 3.9946 18.9526 4.00139 18.918 4H16.394C13.557 4 11.057 6.24 11.057 9.25C11.057 12.26 13.557 14.5 16.394 14.5H18.918ZM3.75 4.5C3.55109 4.5 3.36032 4.57902 3.21967 4.71967C3.07902 4.86032 3 5.05109 3 5.25C3 5.44891 3.07902 5.63968 3.21967 5.78033C3.36032 5.92098 3.55109 6 3.75 6H7.75C7.94891 6 8.13968 5.92098 8.28033 5.78033C8.42098 5.63968 8.5 5.44891 8.5 5.25C8.5 5.05109 8.42098 4.86032 8.28033 4.71967C8.13968 4.57902 7.94891 4.5 7.75 4.5H3.75Z" fill="#B9C0DE"/>
</svg>
