<svg width="18" height="22" viewBox="0 0 18 22" fill="none" xmlns="http://www.w3.org/2000/svg">
<path fill-rule="evenodd" clip-rule="evenodd" d="M0.774318 8.36528C0.940655 6.35503 1.85654 4.48075 3.34028 3.11427C4.82402 1.74778 6.7672 0.988938 8.78432 0.988281H9.21632C11.2334 0.988938 13.1766 1.74778 14.6604 3.11427C16.1441 4.48075 17.06 6.35503 17.2263 8.36528C17.4109 10.6097 16.718 12.8382 15.2933 14.5823L10.5003 20.4443C10.3187 20.6666 10.0898 20.8458 9.8304 20.9689C9.57098 21.0919 9.28744 21.1557 9.00032 21.1557C8.71319 21.1557 8.42966 21.0919 8.17023 20.9689C7.91081 20.8458 7.68198 20.6666 7.50032 20.4443L2.70832 14.5823C1.28328 12.8384 0.590015 10.6098 0.774318 8.36528ZM9.00032 4.73828C7.74054 4.73828 6.53236 5.23873 5.64156 6.12952C4.75076 7.02032 4.25032 8.2285 4.25032 9.48828C4.25032 10.7481 4.75076 11.9562 5.64156 12.847C6.53236 13.7378 7.74054 14.2383 9.00032 14.2383C10.2601 14.2383 11.4683 13.7378 12.3591 12.847C13.2499 11.9562 13.7503 10.7481 13.7503 9.48828C13.7503 8.2285 13.2499 7.02032 12.3591 6.12952C11.4683 5.23873 10.2601 4.73828 9.00032 4.73828Z" fill="#B9C0DE"/>
</svg>
