<svg width="64" height="93" viewBox="0 0 64 93" fill="none" xmlns="http://www.w3.org/2000/svg">
<path d="M32.3081 41.5339C31.8478 41.4873 31.2954 41.4873 30.7891 41.5339C25.5056 41.3525 20.4995 39.0986 16.8308 35.2495C13.162 31.4005 11.1188 26.2585 11.1338 20.9126C11.1338 9.50803 20.248 0.244753 31.5716 0.244753C34.2525 0.195849 36.9167 0.681412 39.412 1.67372C41.9073 2.66602 44.1849 4.14564 46.1148 6.02808C48.0447 7.91052 49.589 10.1589 50.6597 12.6449C51.7303 15.1309 52.3062 17.8058 52.3545 20.5169C52.4029 23.228 51.9228 25.9222 50.9415 28.4456C49.9602 30.969 48.4971 33.2723 46.6356 35.2239C44.7741 37.1755 42.5507 38.7372 40.0924 39.8199C37.6341 40.9025 34.989 41.485 32.3081 41.5339ZM9.2926 58.7105C-1.84688 66.2515 -1.84688 78.5404 9.2926 86.0348C21.9511 94.5999 42.7111 94.5999 55.3696 86.0348C66.5091 78.4939 66.5091 66.2049 55.3696 58.7105C42.7571 50.192 21.9971 50.192 9.2926 58.7105Z" fill="#34C759"/>
</svg>
