<svg width="20" height="19" viewBox="0 0 20 19" fill="none" xmlns="http://www.w3.org/2000/svg">
<path d="M13.2738 4.61386L11.5343 1.55672C11.0347 0.678637 10.7849 0.239595 10.4541 0.0947043C10.1658 -0.0315594 9.83458 -0.0315685 9.54631 0.0946793C9.21551 0.239552 8.96567 0.67858 8.466 1.55664L6.7262 4.61393C6.59102 4.85148 6.52343 4.97026 6.43093 5.06595C6.34894 5.15077 6.25286 5.22199 6.14659 5.2767C6.02669 5.33843 5.88976 5.37125 5.6159 5.43688L1.87704 6.33287C0.952611 6.55441 0.490388 6.66518 0.263984 6.91763C0.0663504 7.138 -0.0268389 7.4272 0.00671486 7.71602C0.0451534 8.04689 0.361685 8.38824 0.994748 9.07094L3.43886 11.7067C3.62076 11.9028 3.71171 12.0009 3.77345 12.113C3.82818 12.2124 3.86585 12.3197 3.88502 12.4305C3.90664 12.5556 3.89614 12.6865 3.87512 12.9482L3.57222 16.7197C3.49185 17.7204 3.45167 18.2208 3.64735 18.5154C3.81786 18.772 4.09644 18.9449 4.41054 18.9889C4.771 19.0395 5.23078 18.7995 6.15033 18.3195L9.16357 16.7467C9.46913 16.5872 9.62191 16.5075 9.78338 16.4762C9.92631 16.4486 10.0736 16.4486 10.2165 16.4764C10.3779 16.5078 10.5307 16.5876 10.8361 16.7473L13.8486 18.3224C14.7684 18.8033 15.2283 19.0438 15.5889 18.9934C15.9031 18.9495 16.1819 18.7767 16.3525 18.52C16.5483 18.2254 16.5081 17.7247 16.4278 16.7233L16.1248 12.9481C16.1038 12.6864 16.0933 12.5556 16.115 12.4305C16.1341 12.3196 16.1718 12.2124 16.2265 12.113C16.2883 12.0009 16.3792 11.9028 16.5611 11.7067L19.0053 9.07093C19.6383 8.38824 19.9548 8.04689 19.9933 7.71602C20.0268 7.4272 19.9336 7.138 19.736 6.91763C19.5096 6.66517 19.0474 6.55441 18.123 6.33287L14.3842 5.43689C14.1103 5.37126 13.9733 5.33844 13.8534 5.2767C13.7472 5.22198 13.6511 5.15076 13.5691 5.06593C13.4766 4.97023 13.409 4.85144 13.2738 4.61386Z" fill="#B9C0DE"/>
</svg>
