<svg width="20" height="21" viewBox="0 0 20 21" fill="none" xmlns="http://www.w3.org/2000/svg">
<g clip-path="url(#clip0_381_2113)">
<path d="M12.5 4.73828H7.5L5.64844 1.96094C5.37109 1.54297 5.66797 0.988281 6.16797 0.988281H13.832C14.332 0.988281 14.6289 1.54297 14.3516 1.96094L12.5 4.73828ZM7.5 5.98828H12.5C12.6484 6.08594 12.8164 6.19531 13.0078 6.31641C15.2227 7.73437 20 10.7891 20 17.2383C20 19.3086 18.3203 20.9883 16.25 20.9883H3.75C1.67969 20.9883 0 19.3086 0 17.2383C0 10.7891 4.77734 7.73437 6.99219 6.31641C7.17969 6.19531 7.35156 6.08594 7.5 5.98828ZM10.7812 9.42578C10.7812 8.99609 10.4297 8.64453 10 8.64453C9.57031 8.64453 9.21875 8.99609 9.21875 9.42578V9.97266C8.92188 10.0391 8.625 10.1445 8.35156 10.3047C7.80859 10.6289 7.33984 11.1953 7.34375 12.0195C7.34766 12.8125 7.8125 13.3125 8.30859 13.6094C8.73828 13.8672 9.27344 14.0312 9.69922 14.1562L9.76562 14.1758C10.2578 14.3242 10.6172 14.4414 10.8594 14.5938C11.0586 14.7188 11.0859 14.8047 11.0898 14.9141C11.0938 15.1094 11.0195 15.2266 10.8594 15.3242C10.6641 15.4453 10.3555 15.5195 10.0234 15.5078C9.58984 15.4922 9.18359 15.3555 8.65234 15.1758C8.5625 15.1445 8.46875 15.1133 8.37109 15.082C7.96094 14.9453 7.51953 15.168 7.38281 15.5742C7.24609 15.9805 7.46875 16.4258 7.875 16.5625C7.94922 16.5859 8.03125 16.6133 8.11328 16.6445C8.4375 16.7578 8.8125 16.8867 9.21484 16.9727V17.543C9.21484 17.9727 9.56641 18.3242 9.99609 18.3242C10.4258 18.3242 10.7773 17.9727 10.7773 17.543V17.0039C11.0898 16.9375 11.4023 16.8281 11.6836 16.6523C12.2422 16.3047 12.6641 15.7109 12.6523 14.8945C12.6406 14.1016 12.1953 13.5898 11.6914 13.2695C11.2422 12.9883 10.6797 12.8164 10.2422 12.6836L10.2148 12.6758C9.71484 12.5234 9.35938 12.4141 9.10938 12.2656C8.90625 12.1445 8.90234 12.0742 8.90234 12.0039C8.90234 11.8594 8.95703 11.75 9.14453 11.6406C9.35547 11.5156 9.67578 11.4414 9.98438 11.4453C10.3594 11.4492 10.7734 11.5312 11.2031 11.6484C11.6211 11.7578 12.0469 11.5117 12.1602 11.0938C12.2734 10.6758 12.0234 10.25 11.6055 10.1367C11.3516 10.0703 11.0703 10.0039 10.7812 9.95312V9.41016V9.42578Z" fill="#B9C0DE"/>
</g>
<defs>
<clipPath id="clip0_381_2113">
<rect width="20" height="20" fill="white" transform="translate(0 0.988281)"/>
</clipPath>
</defs>
</svg>
