<svg width="16" height="20" viewBox="0 0 16 20" fill="none" xmlns="http://www.w3.org/2000/svg">
<path d="M6.53867 3.71409H9.46133V1.16436H6.53867V3.71409ZM8 9.9779C6.568 9.9779 5.18311 9.76193 3.84533 9.33C2.50933 8.89806 1.22756 8.34904 0 7.68291V5.59265C0 5.07619 0.210667 4.63417 0.632 4.2666C1.05333 3.89903 1.56089 3.71486 2.15467 3.71409H5.20533V0.895662C5.20533 0.655268 5.30756 0.445892 5.512 0.267535C5.71644 0.0891787 5.956 0 6.23067 0H9.76933C10.0449 0 10.2849 0.0891787 10.4893 0.267535C10.6938 0.445892 10.796 0.655268 10.796 0.895662V3.71409H13.8467C14.4387 3.71409 14.9453 3.89826 15.3667 4.2666C15.788 4.63495 15.9991 5.07696 16 5.59265V7.68291C14.7733 8.34981 13.4916 8.89884 12.1547 9.33C10.8178 9.76193 9.43289 9.9779 8 9.9779ZM2.15467 19.9988V18.8356C1.56178 18.8356 1.05467 18.6515 0.633333 18.2831C0.212 17.9148 0.000888889 17.4731 0 16.9582V9.04851C1.14222 9.6177 2.32311 10.0869 3.54267 10.456C4.76222 10.8235 6.02578 11.0477 7.33333 11.1283V12.3043H8.66667V11.1283C9.97422 11.0477 11.2378 10.8232 12.4573 10.4548C13.6778 10.0865 14.8587 9.61731 16 9.04734V16.9571C16 17.4743 15.7889 17.9167 15.3667 18.2843C14.9444 18.6519 14.4378 18.836 13.8467 18.8368V20H12.5133V18.8368H3.48667V20L2.15467 19.9988Z" fill="#B9C0DE"/>
</svg>
