<svg width="24" height="28" viewBox="0 0 24 28" fill="none" xmlns="http://www.w3.org/2000/svg">
<g clip-path="url(#clip0_381_2089)">
<path d="M1.37236 6.39465L1.19782 7.66229L2.43055 7.31756L2.91164 8.50447L3.80618 7.59029L4.81636 8.37574L5.13491 7.13756L6.40254 7.3121L6.05782 6.07938L7.24473 5.59938L6.33054 4.70483L7.116 3.69465L5.87782 3.3761L6.05236 2.10847L4.81964 2.45319L4.33855 1.26629L3.43855 2.18047L2.42836 1.39501L2.10982 2.63319L0.842182 2.45865L1.18691 3.69138L0 4.17247L0.914182 5.06701L0.128727 6.07719L1.37236 6.39465ZM2.93127 2.87538C3.32799 2.74019 3.75585 2.72545 4.16092 2.83303C4.566 2.9406 4.93017 3.16568 5.20754 3.47989C5.48491 3.79409 5.66307 4.18337 5.71957 4.59867C5.77606 5.01396 5.70836 5.43669 5.525 5.81357C5.34164 6.19045 5.05082 6.50462 4.6892 6.71649C4.32758 6.92837 3.91133 7.02846 3.49292 7.00415C3.07451 6.97985 2.67265 6.83223 2.33799 6.57992C2.00333 6.3276 1.75085 5.98186 1.61236 5.58629L1.608 5.57101C1.42718 5.04089 1.46319 4.46078 1.70819 3.95709C1.95319 3.4534 2.38732 3.06694 2.916 2.88192L2.93127 2.87756V2.87538ZM5.11745 23.4412C5.17511 23.4411 5.23218 23.4296 5.28536 23.4073C5.33853 23.385 5.38677 23.3524 5.42727 23.3114L5.69564 23.0343C6.16909 22.5466 6.83018 22.2445 7.56218 22.2445C8.29418 22.2445 8.95527 22.5466 9.42873 23.0343L9.42982 23.0354L9.70473 23.3168C9.74523 23.3579 9.79347 23.3905 9.84664 23.4127C9.89982 23.435 9.95689 23.4466 10.0145 23.4466C10.1345 23.4466 10.2447 23.3965 10.3211 23.3168L10.6113 23.0223C10.8534 22.7752 11.1425 22.5791 11.4616 22.4453C11.7806 22.3115 12.1231 22.2429 12.4691 22.2434C13.2033 22.2434 13.8676 22.5477 14.3411 23.0365L14.3422 23.0376L14.604 23.3059C14.644 23.3476 14.692 23.3808 14.7451 23.4035C14.7982 23.4263 14.8554 23.4382 14.9131 23.4385C14.9709 23.4388 15.0281 23.4275 15.0815 23.4053C15.1348 23.3831 15.1832 23.3504 15.2236 23.3092L15.4898 23.0343C15.9633 22.5466 16.6244 22.2445 17.3564 22.2445C18.0884 22.2445 18.7495 22.5466 19.2229 23.0343L19.224 23.0354L19.4967 23.3125C19.5365 23.3547 19.5845 23.3884 19.6378 23.4114C19.6911 23.4345 19.7485 23.4463 19.8065 23.4463C19.8646 23.4463 19.922 23.4345 19.9753 23.4114C20.0286 23.3884 20.0766 23.3547 20.1164 23.3125L20.3847 23.0354C20.5622 22.8557 20.7615 22.7037 20.9825 22.5794L20.9956 22.5728C19.6302 21.318 18.0336 20.3409 16.2949 19.6961L16.1956 19.6645C15.4604 16.527 16.1084 12.4056 17.1185 9.28883C17.1411 9.26556 17.1622 9.24229 17.1818 9.21901C17.9944 9.4168 18.7172 9.88152 19.2344 10.5388C19.7516 11.196 20.0334 12.0078 20.0345 12.8441C20.0345 13.7801 19.6898 14.6354 19.1204 15.2899L19.1247 15.2856L19.2044 15.2866C20.1933 15.2866 21.1417 14.8938 21.841 14.1945C22.5402 13.4953 22.9331 12.5468 22.9331 11.5579C22.9331 10.569 22.5402 9.62059 21.841 8.92131C21.1417 8.22204 20.1933 7.82919 19.2044 7.82919L19.0833 7.83138H19.0887C19.3735 7.74956 19.7029 7.69283 20.0433 7.67319H20.0553C20.7697 7.61624 21.4864 7.75053 22.1318 8.06228C22.7771 8.37402 23.3278 8.85197 23.7273 9.44701L23.736 9.46119C23.9594 8.99716 24.0618 8.48417 24.0338 7.96992V7.97756C23.9087 6.999 23.4018 6.10959 22.6236 5.50326C21.8454 4.89693 20.8591 4.62287 19.8796 4.74083L19.8971 4.73865C19.6525 4.75165 19.4095 4.78523 19.1705 4.83901L19.1989 4.83356L19.2 4.73974C19.2 4.47283 19.1749 4.21392 19.1247 3.96301L19.1291 3.9881C19.0158 3.09856 18.5549 2.29006 17.8471 1.73935C17.1394 1.18864 16.2425 0.940508 15.3524 1.04919L15.3687 1.0481C14.8887 1.1441 14.4665 1.35029 14.1164 1.63938L14.1207 1.6361C14.6313 1.8154 15.0947 2.10782 15.4763 2.49151C15.8579 2.87519 16.1478 3.3402 16.3244 3.85174L16.332 3.87683C16.0218 3.62138 15.6832 3.40248 15.3229 3.22447L15.2924 3.21029C13.0811 2.13683 10.5633 2.75538 9.66873 4.59683C9.42517 5.09798 9.31829 5.65457 9.35891 6.21029L9.35782 6.20047C10.0813 5.7507 10.9168 5.51366 11.7687 5.51647C12.552 5.51647 13.2905 5.71283 13.9353 6.05865L13.9102 6.04665C14.2432 6.21013 14.5586 6.40715 14.8516 6.63465L14.8396 6.62592C13.9766 6.27491 13.0193 6.2302 12.1273 6.49925C11.2352 6.76831 10.4623 7.33488 9.93727 8.10458C9.41223 8.87428 9.16677 9.80064 9.24177 10.7293C9.31677 11.658 9.70771 12.533 10.3495 13.2085L10.3473 13.2063C10.7498 13.6296 11.2418 13.9656 11.7927 14.1826L11.82 14.1925C11.6048 13.5438 11.5563 12.8515 11.6788 12.1792C11.8013 11.5068 12.0909 10.8761 12.521 10.345C12.9512 9.81399 13.508 9.39964 14.1402 9.14015C14.7724 8.88066 15.4597 8.78436 16.1389 8.8601L16.1204 8.85792C13.8971 13.1146 12.5629 16.4354 12.3404 18.9936H12.2858C11.1948 18.9945 10.1094 19.1483 9.06109 19.4506L9.144 19.4299C7.90846 18.1552 6.98146 16.6143 6.43418 14.9256L6.41127 14.8437C6.40982 14.8256 6.412 14.8092 6.41782 14.7946C6.7325 14.6613 7.07625 14.6113 7.41587 14.6496C7.7555 14.6879 8.07951 14.8131 8.35664 15.0131C8.63376 15.2131 8.85462 15.4812 8.99789 15.7915C9.14117 16.1018 9.20201 16.4438 9.17454 16.7845V16.7779C9.38858 16.6233 9.56965 16.4275 9.70719 16.2021C9.84473 15.9767 9.93598 15.7262 9.97561 15.4651C10.0152 15.204 10.0024 14.9377 9.93799 14.6816C9.87353 14.4256 9.7587 14.1849 9.60019 13.9737C9.44169 13.7625 9.2427 13.585 9.01483 13.4516C8.78697 13.3182 8.5348 13.2315 8.27306 13.1966C8.01132 13.1617 7.74525 13.1793 7.4904 13.2484C7.23554 13.3175 6.99701 13.4367 6.78873 13.599L6.79309 13.5957C6.89932 13.4601 7.01922 13.3359 7.15091 13.2248L7.15527 13.2216C7.54638 12.8788 8.04902 12.6903 8.56909 12.6914C8.83091 12.6914 9.08291 12.7383 9.31527 12.8245L9.3 12.8201C9.24806 12.5497 9.12874 12.2968 8.95309 12.0848L8.95527 12.087C8.76982 11.8931 8.54699 11.7388 8.30024 11.6335C8.05349 11.5281 7.78794 11.4738 7.51964 11.4739C6.99164 11.4739 6.51164 11.6801 6.156 12.0161L6.15709 12.015C6.06036 12.0965 5.97164 12.183 5.89091 12.2746L5.88873 12.2768C5.80168 12.1546 5.70224 12.0416 5.592 11.9397L5.59091 11.9386C5.42245 11.7624 5.21994 11.6222 4.99566 11.5265C4.77138 11.4309 4.53 11.3818 4.28618 11.3823C3.82587 11.3816 3.38277 11.5573 3.048 11.8732L3.04909 11.8721C2.88545 12.0499 2.76436 12.2681 2.70218 12.5103L2.7 12.5201C2.97897 12.4326 3.27446 12.4111 3.56317 12.4572C3.85188 12.5034 4.1259 12.6161 4.36364 12.7863L4.35818 12.7819C4.13226 12.7717 3.90592 12.7886 3.684 12.8321L3.70145 12.8288C3.12586 12.8887 2.59692 13.1726 2.2289 13.6192C1.86088 14.0659 1.68331 14.6393 1.73455 15.2157L1.73345 15.207C1.79236 15.5103 1.92436 15.7765 2.112 15.9946L2.10982 15.9925C2.43382 15.1961 3.14182 14.6179 3.99818 14.4837L4.01236 14.4816C4.20512 14.443 4.40175 14.4273 4.59818 14.4346H4.59382C4.03744 14.5841 3.56322 14.9484 3.27547 15.4475C2.98772 15.9466 2.91002 16.5395 3.05945 17.0959C3.20889 17.6523 3.57323 18.1265 4.07231 18.4143C4.5714 18.702 5.16435 18.7797 5.72073 18.6303L5.70545 18.6336C5.36703 18.3945 5.10368 18.0639 4.94623 17.6806C4.78878 17.2973 4.74374 16.8771 4.81636 16.4692L4.81418 16.4823C4.86772 16.1742 4.98753 15.8813 5.16533 15.624C5.34314 15.3667 5.5747 15.1511 5.844 14.9921L5.85382 14.9866C6.05879 16.8087 6.54262 18.5884 7.28836 20.2634L7.24254 20.1488C5.90998 20.7797 4.67809 21.6043 3.58691 22.5957L3.59891 22.5848C4.06691 22.7441 4.46509 23.0005 4.788 23.331L4.78909 23.3321C4.88234 23.403 4.99594 23.442 5.11309 23.4434L5.11745 23.4412Z" fill="#B9C0DE"/>
<path d="M1.31152 24.5629C1.37185 24.5626 1.43152 24.5504 1.48712 24.527C1.54272 24.5036 1.59315 24.4694 1.63552 24.4265C1.77008 24.2877 1.93112 24.1774 2.1091 24.102C2.28707 24.0266 2.47837 23.9877 2.67166 23.9876C2.86494 23.9875 3.05628 24.0262 3.23434 24.1014C3.4124 24.1766 3.57355 24.2868 3.70825 24.4254C4.06716 24.793 4.5668 25.021 5.12098 25.021C5.67516 25.021 6.1748 24.793 6.53262 24.4254L6.80098 24.1505C6.90062 24.0479 7.01984 23.9663 7.15157 23.9106C7.2833 23.855 7.42487 23.8263 7.56789 23.8263C7.71091 23.8263 7.85247 23.855 7.9842 23.9106C8.11594 23.9663 8.23515 24.0479 8.3348 24.1505L8.60971 24.4319C8.96752 24.8007 9.46716 25.0287 10.0213 25.0287C10.5712 25.0287 11.0697 24.8029 11.4264 24.4385L11.7188 24.1439C11.8183 24.0419 11.9374 23.9608 12.0689 23.9057C12.2003 23.8505 12.3416 23.8224 12.4841 23.8229C12.6267 23.8234 12.7677 23.8525 12.8988 23.9086C13.0299 23.9647 13.1484 24.0466 13.2472 24.1494L13.509 24.4178C13.8646 24.7887 14.3653 25.0199 14.9195 25.0199H14.9228C15.477 25.0199 15.9766 24.7898 16.3333 24.421L16.3344 24.4199L16.6006 24.1472C16.7003 24.0446 16.8195 23.9631 16.9512 23.9074C17.0829 23.8517 17.2245 23.823 17.3675 23.823C17.5105 23.823 17.6521 23.8517 17.7838 23.9074C17.9156 23.9631 18.0348 24.0446 18.1344 24.1472L18.4028 24.4221C18.7606 24.7898 19.2603 25.0178 19.8133 25.0178C20.3664 25.0178 20.8661 24.7898 21.2239 24.4221L21.4933 24.1439C21.593 24.0414 21.7122 23.9598 21.8439 23.9041C21.9757 23.8484 22.1172 23.8197 22.2603 23.8197C22.4033 23.8197 22.5448 23.8484 22.6766 23.9041C22.8083 23.9598 22.9275 24.0414 23.0272 24.1439C23.0689 24.1875 23.119 24.2222 23.1745 24.2458C23.23 24.2695 23.2897 24.2817 23.3501 24.2817C23.4104 24.2817 23.4701 24.2695 23.5256 24.2458C23.5811 24.2222 23.6312 24.1875 23.673 24.1439C23.759 24.0545 23.807 23.9353 23.807 23.8112C23.807 23.6872 23.759 23.5679 23.673 23.4785C23.4896 23.2894 23.2702 23.1391 23.0276 23.0364C22.7851 22.9337 22.5244 22.8807 22.261 22.8806C21.9976 22.8805 21.7369 22.9333 21.4943 23.0358C21.2517 23.1383 21.0321 23.2885 20.8486 23.4774L20.5803 23.7545C20.4806 23.8571 20.3614 23.9386 20.2297 23.9943C20.0979 24.05 19.9564 24.0787 19.8133 24.0787C19.6703 24.0787 19.5288 24.05 19.397 23.9943C19.2653 23.9386 19.1461 23.8571 19.0464 23.7545L18.7781 23.4774C18.5947 23.2883 18.3753 23.138 18.1327 23.0353C17.8902 22.9326 17.6295 22.8796 17.3661 22.8795C17.1027 22.8794 16.842 22.9322 16.5994 23.0347C16.3568 23.1372 16.1372 23.2874 15.9537 23.4763L15.6875 23.749C15.5877 23.8514 15.4683 23.9327 15.3364 23.9881C15.2046 24.0436 15.0629 24.0719 14.9199 24.0716C14.7769 24.0713 14.6354 24.0423 14.5038 23.9864C14.3722 23.9304 14.2531 23.8486 14.1537 23.7458L13.8919 23.4774C13.7099 23.2875 13.4915 23.1362 13.2498 23.0325C13.0081 22.9287 12.748 22.8747 12.485 22.8736C12.222 22.8724 11.9614 22.9243 11.7188 23.0259C11.4762 23.1276 11.2566 23.2771 11.073 23.4654L10.7828 23.7599C10.6829 23.8614 10.5637 23.9418 10.4323 23.9965C10.3009 24.0512 10.1598 24.0792 10.0175 24.0787C9.87511 24.0782 9.73428 24.0492 9.60325 23.9936C9.47222 23.9379 9.35363 23.8566 9.25443 23.7545L8.97952 23.473C8.62062 23.1054 8.12098 22.8774 7.5668 22.8774C7.01261 22.8774 6.51298 23.1054 6.15516 23.473L5.8868 23.748C5.78739 23.8502 5.66852 23.9316 5.53718 23.9872C5.40585 24.0429 5.26471 24.0717 5.12207 24.0719H5.11662C4.9747 24.0719 4.83425 24.0432 4.70362 23.9878C4.57299 23.9323 4.45486 23.8511 4.35625 23.749C3.92971 23.3094 3.33407 23.0367 2.67407 23.0367C2.01407 23.0367 1.41843 23.3094 0.992979 23.748L0.991888 23.749C0.906036 23.8386 0.858196 23.9579 0.858399 24.082C0.858602 24.206 0.906834 24.3252 0.992979 24.4145C1.03356 24.4598 1.08314 24.4961 1.13856 24.521C1.19398 24.546 1.25401 24.5592 1.3148 24.5596L1.31152 24.5629Z" fill="#B9C0DE"/>
<path d="M23.6686 25.6256C23.4852 25.4365 23.2657 25.2862 23.0232 25.1835C22.7807 25.0808 22.52 25.0278 22.2566 25.0277C21.9932 25.0276 21.7325 25.0804 21.4899 25.1829C21.2473 25.2854 21.0277 25.4356 20.8442 25.6245L20.5758 25.9016C20.4762 26.0042 20.357 26.0857 20.2252 26.1414C20.0935 26.1971 19.9519 26.2258 19.8089 26.2258C19.6659 26.2258 19.5243 26.1971 19.3926 26.1414C19.2609 26.0857 19.1417 26.0042 19.042 25.9016L18.7726 25.6234C18.5892 25.4343 18.3697 25.284 18.1272 25.1813C17.8847 25.0786 17.624 25.0256 17.3606 25.0255C17.0972 25.0254 16.8365 25.0782 16.5939 25.1807C16.3513 25.2832 16.1317 25.4334 15.9482 25.6223L15.682 25.895C15.5821 25.9974 15.4628 26.0787 15.3309 26.1341C15.1991 26.1895 15.0574 26.2179 14.9144 26.2176C14.7714 26.2173 14.6299 26.1883 14.4983 26.1324C14.3667 26.0764 14.2476 25.9946 14.1482 25.8918L13.8864 25.6234C13.7044 25.4335 13.486 25.2822 13.2443 25.1784C13.0026 25.0747 12.7425 25.0207 12.4795 25.0195C12.2164 25.0184 11.9559 25.0703 11.7133 25.1719C11.4707 25.2736 11.2511 25.4231 11.0675 25.6114L10.7773 25.9059C10.6774 26.0073 10.5582 26.0878 10.4268 26.1425C10.2953 26.1972 10.1543 26.2252 10.012 26.2247C9.86959 26.2242 9.72876 26.1952 9.59773 26.1395C9.4667 26.0839 9.34811 26.0026 9.24892 25.9005L8.97401 25.619C8.79064 25.43 8.57119 25.2796 8.32865 25.1769C8.08612 25.0742 7.82544 25.0213 7.56206 25.0212C7.29868 25.0211 7.03795 25.0738 6.79534 25.1763C6.55273 25.2789 6.33316 25.429 6.14964 25.6179L5.88128 25.895C5.78164 25.9976 5.66242 26.0792 5.53069 26.1349C5.39896 26.1906 5.25739 26.2193 5.11437 26.2193C4.97135 26.2193 4.82978 26.1906 4.69805 26.1349C4.56632 26.0792 4.44711 25.9976 4.34746 25.895C3.92092 25.4554 3.32528 25.1827 2.66528 25.1827C2.00528 25.1827 1.40964 25.4554 0.98419 25.8939L0.983099 25.895C0.897247 25.9846 0.849407 26.1039 0.84961 26.228C0.849813 26.352 0.898045 26.4712 0.98419 26.5605C1.02582 26.6045 1.07596 26.6397 1.13158 26.6637C1.18719 26.6878 1.24712 26.7003 1.30772 26.7005C1.36832 26.7007 1.42833 26.6886 1.48411 26.6649C1.53988 26.6412 1.59026 26.6064 1.63219 26.5627C1.76675 26.4239 1.92778 26.3136 2.10576 26.2382C2.28374 26.1628 2.47504 26.1239 2.66832 26.1238C2.86161 26.1237 3.05295 26.1624 3.231 26.2376C3.40906 26.3128 3.57021 26.423 3.70492 26.5616C4.06383 26.9292 4.56346 27.1572 5.11764 27.1572C5.67183 27.1572 6.17146 26.9292 6.52928 26.5616L6.79764 26.2867C6.89729 26.1841 7.0165 26.1025 7.14824 26.0468C7.27997 25.9911 7.42153 25.9624 7.56455 25.9624C7.70757 25.9624 7.84914 25.9911 7.98087 26.0468C8.1126 26.1025 8.23182 26.1841 8.33146 26.2867L8.60637 26.5681C8.78895 26.7569 9.00754 26.9072 9.24921 27.01C9.49088 27.1128 9.75072 27.1661 10.0134 27.1667C10.276 27.1673 10.5361 27.1152 10.7782 27.0135C11.0204 26.9118 11.2396 26.7626 11.4231 26.5747L11.7155 26.2801C11.815 26.178 11.934 26.097 12.0655 26.0419C12.197 25.9867 12.3382 25.9585 12.4808 25.959C12.6234 25.9596 12.7644 25.9887 12.8955 26.0448C13.0266 26.1009 13.145 26.1828 13.2438 26.2856L13.5056 26.5539C13.8613 26.9249 14.362 27.1561 14.9162 27.1561H14.9195C15.4726 27.1561 15.9722 26.927 16.3289 26.5583L16.5951 26.2845C16.6947 26.1819 16.814 26.1003 16.9457 26.0446C17.0774 25.9889 17.219 25.9603 17.362 25.9603C17.505 25.9603 17.6466 25.9889 17.7783 26.0446C17.9101 26.1003 18.0293 26.1819 18.1289 26.2845L18.3973 26.5594C18.7551 26.927 19.2547 27.155 19.8078 27.155C20.3609 27.155 20.8606 26.927 21.2184 26.5594L21.4867 26.2845C21.5864 26.1819 21.7056 26.1003 21.8373 26.0446C21.9691 25.9889 22.1106 25.9603 22.2536 25.9603C22.3967 25.9603 22.5382 25.9889 22.67 26.0446C22.8017 26.1003 22.9209 26.1819 23.0205 26.2845C23.0623 26.328 23.1124 26.3627 23.1679 26.3864C23.2234 26.4101 23.2831 26.4223 23.3435 26.4223C23.4038 26.4223 23.4635 26.4101 23.519 26.3864C23.5745 26.3627 23.6246 26.328 23.6664 26.2845C23.7545 26.1963 23.8041 26.0769 23.8045 25.9522C23.8049 25.8276 23.7561 25.7078 23.6686 25.619V25.6256Z" fill="#B9C0DE"/>
</g>
<defs>
<clipPath id="clip0_381_2089">
<rect width="24" height="26.1818" fill="white" transform="translate(0 0.988281)"/>
</clipPath>
</defs>
</svg>
